<svg width="232" height="174" viewBox="0 0 232 174" fill="none" xmlns="http://www.w3.org/2000/svg">
<g clip-path="url(#clip0_97_173)">
<path d="M214.654 158.156C207.053 163.87 197.792 169.658 188.687 172.387C186.062 173.197 183.354 173.715 180.612 173.929C178.049 174.132 175.47 173.935 172.969 173.344C166.398 171.73 160.303 168.905 154.406 165.604C152.479 164.524 150.575 163.395 148.681 162.24C145.591 160.355 142.53 158.404 139.462 156.499C139.003 156.211 138.546 155.928 138.087 155.647H138.084C137.343 155.188 136.601 154.736 135.856 154.29C135.725 154.21 135.595 154.133 135.461 154.053C134.055 153.212 132.625 152.39 131.17 151.588C130.992 151.492 130.814 151.393 130.636 151.297C127.822 149.756 124.93 148.359 121.971 147.111C120.027 146.303 118.059 145.575 116.071 144.953H116.068C115.308 144.717 114.545 144.494 113.779 144.291C111.483 143.669 109.143 143.217 106.779 142.939C103.521 142.55 100.226 142.575 96.9754 143.016C96.7554 143.046 96.5382 143.076 96.3183 143.112C87.5197 144.503 79.4895 149.191 70.6519 150.296C70.3652 150.332 70.0812 150.365 69.7944 150.39C69.6719 150.401 69.5493 150.414 69.4268 150.423C66.8586 150.64 64.274 150.577 61.7197 150.236C54.5833 149.307 47.6336 146.424 41.3771 142.79C26.7508 134.295 14.8893 121.238 7.67782 106.117C6.43945 103.525 5.33997 100.871 4.38392 98.1657C1.7109 90.6635 0.238865 82.7958 0.0208029 74.8461C-0.655799 47.2638 15.2235 19.5908 40.1547 7.11605C65.0888 -5.35865 97.8887 -1.2334 117.997 17.9308C130.196 29.5562 137.254 45.3097 146.434 59.3839C155.614 73.4554 168.662 86.8975 185.491 88.9478C194.064 89.9922 203.035 87.9721 211.252 90.5995C215.801 92.0562 219.683 94.843 222.809 98.3938C224.912 100.803 226.671 103.485 228.039 106.364C229.041 108.445 229.854 110.61 230.469 112.834C230.583 113.243 230.689 113.653 230.792 114.062C234.885 130.563 228.345 147.861 214.654 158.156Z" fill="#CFD1D0"/>
<path d="M77.7298 128.285H51.5567C47.6354 128.285 44.4565 131.422 44.4565 135.293V135.293C44.4565 139.163 47.6354 142.301 51.5567 142.301H77.7298C81.6511 142.301 84.8299 139.163 84.8299 135.293C84.8299 131.422 81.6511 128.285 77.7298 128.285Z" fill="#414648"/>
<path d="M69.7944 138.729V150.39C67.1059 150.646 64.3962 150.595 61.7197 150.236V138.729H69.7944Z" fill="#414648"/>
<path d="M96.9756 143.016C96.7556 143.046 96.5384 143.076 96.3184 143.112C87.5198 144.503 79.4897 149.191 70.6521 150.296C70.3653 150.332 70.0813 150.365 69.7945 150.39C69.672 150.401 69.5495 150.414 69.427 150.423C67.2691 148.337 65.1112 146.116 63.0842 143.816C61.9844 142.571 60.9207 141.301 59.9211 140.015C57.3261 136.695 55.1264 133.281 53.673 129.928C53.8206 128.32 52.807 124.602 52.3226 121.755L52.3198 121.752C52.1137 120.556 52.0024 119.518 52.1054 118.85C52.6957 114.997 55.8838 115.439 56.8639 111.663C57.748 110.939 58.6893 110.285 59.6789 109.709C59.8432 109.613 60.0102 109.516 60.1829 109.42L70.8192 102.165L74.8843 106.1L81.0712 112.092L87.776 118.58L82.0847 124.256C82.0847 124.256 86.8404 129.667 92.4008 136.882C93.8933 138.819 95.4442 140.889 96.9756 143.016Z" fill="#414648"/>
<path d="M188.687 138.729V172.387C186.062 173.198 183.354 173.715 180.612 173.929V138.729H188.687Z" fill="#414648"/>
<path d="M199.128 135.98H172.955C169.034 135.98 165.855 139.118 165.855 142.988V142.988C165.855 146.859 169.034 149.997 172.955 149.997H199.128C203.05 149.997 206.228 146.859 206.228 142.988C206.228 139.118 203.05 135.98 199.128 135.98Z" fill="#414648"/>
<path d="M135.461 154.053C134.055 153.212 132.625 152.39 131.17 151.588C130.992 151.492 130.814 151.393 130.636 151.296L131.594 150.892L134.177 149.796L134.203 149.785L134.23 149.878L135.461 154.053Z" fill="#FFC9B8"/>
<path d="M139.462 156.499C139.003 156.211 138.546 155.928 138.087 155.647H138.084C137.343 155.188 136.601 154.736 135.857 154.29C135.726 154.21 135.595 154.133 135.461 154.053C134.055 153.212 132.625 152.39 131.17 151.588C130.992 151.492 130.814 151.393 130.636 151.297C127.822 149.756 124.93 148.359 121.971 147.111C120.027 146.303 118.059 145.575 116.071 144.953H116.068L114.506 142.373L107.475 130.75L105.93 128.197C105.93 128.197 100.659 129.736 93.1999 131.212C90.4852 131.75 87.4836 132.278 84.3345 132.723C80.9682 133.196 77.4376 133.573 73.9293 133.754C72.2559 133.842 70.5881 133.886 68.9453 133.872C64.6991 133.845 60.62 133.452 57.0477 132.517C55.856 131.412 52.2641 129.909 49.6914 128.532H49.6886C48.6082 127.955 47.7117 127.403 47.2411 126.911C44.5291 124.08 46.8457 121.873 44.4345 118.784C44.402 117.651 44.4607 116.516 44.6099 115.392C44.6349 115.205 44.66 115.016 44.6906 114.823L45.4507 102.082L51.0975 101.346L59.69 100.224L68.9982 99.0095L70.0228 106.93C70.0228 106.93 77.2706 106.567 86.4534 106.688C101.202 106.886 120.938 108.337 123.611 114.565C123.861 115.151 124.112 115.741 124.363 116.332C124.958 117.745 125.549 119.165 126.134 120.592C128.252 125.759 130.274 130.975 132.12 135.906C133.267 138.973 134.347 141.93 135.341 144.698C136.141 146.924 136.881 149.029 137.558 150.967C138.176 152.737 138.736 154.367 139.234 155.829C139.312 156.057 139.387 156.282 139.462 156.499Z" fill="#414648"/>
<path d="M87.518 79.3017L69.6826 64.3504L81.2865 52.7588L89.382 65.8472L119.39 71.7196C120.293 71.0493 121.373 70.6526 122.5 70.5779C123.627 70.5033 124.751 70.7538 125.736 71.299C126.721 71.8442 127.524 72.6605 128.047 73.6484C128.57 74.6363 128.791 75.753 128.682 76.8625C128.573 77.972 128.14 79.0263 127.434 79.8968C126.729 80.7673 125.782 81.4165 124.71 81.7651C123.637 82.1137 122.485 82.1467 121.393 81.8601C120.302 81.5735 119.319 80.9796 118.563 80.151L87.518 79.3017Z" fill="#FFC9B8"/>
<path d="M53.9202 44.701C51.859 51.3197 71.4895 67.1054 71.4895 67.1054C71.7076 65.5164 82.8374 79.2183 83.5946 77.9774C85.7467 74.4506 88.1147 65.733 90.5992 64.6188C92.02 63.9816 83.8692 55.1251 83.8692 55.1251C83.8692 55.1251 79.7114 49.6955 74.2217 42.8141C72.7063 40.8402 70.7095 39.2769 68.4173 38.2696C66.1251 37.2624 63.6119 36.8439 61.1118 37.0533C61.1118 37.0533 55.9814 38.0822 53.9202 44.701Z" fill="#414648"/>
<path d="M62.5996 30.0484C69.2619 30.0484 74.6627 24.7175 74.6627 18.1415C74.6627 11.5655 69.2619 6.23462 62.5996 6.23462C55.9374 6.23462 50.5366 11.5655 50.5366 18.1415C50.5366 24.7175 55.9374 30.0484 62.5996 30.0484Z" fill="#FFC9B8"/>
<path d="M68.6314 37.918C71.2302 39.443 72.7848 42.245 73.6772 45.0963C75.3294 50.3751 76.3239 55.8329 76.6388 61.3491L77.5813 77.8637L89.2552 113.028C79.1379 121.478 41.1082 114.948 41.1082 114.948C41.1082 114.948 39.9408 114.564 41.1082 113.412C42.2755 112.26 43.412 113.281 42.2446 112.128C41.0773 110.976 41.882 112.26 42.2711 111.107C42.6603 109.955 42.2711 110.723 41.882 110.339C41.4929 109.955 44.8945 106.498 44.8945 106.498L41.7814 86.3137L37.8901 45.5998C42.5597 39.8384 51.9508 36.4421 51.9508 36.4421L54.3773 32.1309L66.51 33.0889L68.6314 37.918Z" fill="#414648"/>
<path d="M72.544 11.8156C73.4815 12.5058 74.1761 13.4689 74.53 14.5693C74.6659 12.771 74.6746 10.9656 74.5558 9.16619C74.4136 7.90173 73.5118 7.61731 72.4674 7.28774C71.5243 6.98999 70.4577 6.65364 70.1708 5.42614C66.3788 1.78502 59.7779 1.96863 55.2604 3.23871C52.7746 3.93761 51.3442 4.83555 51.2163 5.36158L51.1898 5.46986L51.0888 5.51968C49.1727 6.46534 48.7997 9.45154 48.8244 11.7901C48.871 16.196 50.4123 21.2001 51.2805 21.6066C51.3265 21.6281 51.3381 21.6197 51.358 21.6033C52.6653 20.5721 54.2604 21.6817 54.9613 22.2849C55.3747 19.5465 56.7059 17.0239 58.7422 15.1199C60.7786 13.2159 63.4026 12.0403 66.1952 11.781C67.1072 11.694 68.0119 11.5442 68.9027 11.3328C69.3546 11.2174 69.8192 11.1573 70.2859 11.1537C71.0894 11.1416 71.8774 11.3726 72.544 11.8156V11.8156Z" fill="#414648"/>
<path d="M57.344 97.2409L53.6539 95.3755C53.4562 95.2364 53.3158 95.0318 53.2583 94.799C53.2008 94.5662 53.23 94.3207 53.3407 94.1074C53.4513 93.8941 53.636 93.7273 53.861 93.6373C54.086 93.5473 54.3363 93.5402 54.5662 93.6173L58.2563 95.4827C58.454 95.6217 58.5944 95.8264 58.6519 96.0592C58.7094 96.292 58.6802 96.5374 58.5695 96.7507C58.4589 96.964 58.2742 97.1309 58.0492 97.2208C57.8242 97.3108 57.5739 97.3179 57.344 97.2409L57.344 97.2409Z" fill="#BFDAA2"/>
<path d="M44.9247 92.2433L38.8545 69.9372L55.0759 66.9062L54.2036 82.217L75.5171 103.879C76.6454 103.833 77.7628 104.113 78.733 104.683C79.7032 105.254 80.4843 106.091 80.981 107.092C81.4777 108.093 81.6686 109.215 81.5304 110.321C81.3922 111.427 80.9309 112.47 80.2027 113.322C79.4745 114.174 78.5109 114.799 77.4294 115.119C76.3478 115.44 75.1951 115.443 74.1118 115.129C73.0284 114.814 72.0612 114.195 71.3282 113.347C70.5951 112.499 70.1278 111.459 69.9833 110.353L44.9247 92.2433Z" fill="#FFC9B8"/>
<path d="M37.1948 44.9274C31.6886 49.218 38.7558 73.2174 38.7558 73.2174C39.8499 72.0322 41.1214 89.5494 42.4588 88.953C46.2599 87.2578 53.2267 81.4121 55.9126 81.8885C57.4485 82.1611 55.8393 70.3018 55.8393 70.3018C55.8393 70.3018 55.5433 63.5019 54.987 54.7604C54.8762 52.2862 54.133 49.8799 52.8265 47.7655C51.52 45.651 49.6928 43.8973 47.515 42.6674C47.515 42.6674 42.7009 40.6369 37.1948 44.9274Z" fill="#414648"/>
<path d="M228.038 106.364L7.67769 106.117C6.43932 103.525 5.33983 100.871 4.38379 98.1658L222.809 98.3939C224.912 100.803 226.671 103.485 228.038 106.364V106.364Z" fill="#414648"/>
<path d="M157.853 164.03C156.714 164.574 155.565 165.099 154.406 165.604C152.479 164.524 150.575 163.395 148.681 162.24L155.703 159.195L157.853 164.03Z" fill="#FFC9B8"/>
<path d="M209.052 126.158C207.911 127.669 206.733 129.15 205.519 130.602C204.399 131.94 203.25 133.253 202.072 134.54C201.584 135.073 201.092 135.604 200.588 136.129C199.66 137.11 198.713 138.074 197.745 139.023C196.002 139.564 192.471 140.518 188.687 141.408C185.933 142.054 183.046 142.667 180.613 143.057C179.25 143.298 177.872 143.444 176.489 143.491C174.846 143.505 173.178 143.461 171.505 143.373C169.617 143.274 167.726 143.12 165.858 142.922C160.999 142.419 156.294 141.636 152.234 140.831C150.747 140.54 149.35 140.243 148.063 139.954C145.627 139.413 143.589 138.907 142.113 138.522C140.451 138.094 139.504 137.816 139.504 137.816L135.341 144.698L133.181 148.268L131.594 150.893L131.17 151.588C130.992 151.492 130.814 151.393 130.636 151.297C127.822 149.756 124.93 148.359 121.971 147.111C120.027 146.303 118.059 145.575 116.071 144.953H116.068C115.308 144.717 114.545 144.494 113.779 144.291C114.019 143.656 114.261 143.017 114.506 142.373C114.963 141.172 115.429 139.96 115.904 138.737C116.931 136.087 117.995 133.399 119.089 130.725C119.986 128.529 120.899 126.342 121.823 124.184C122.249 123.189 123.115 122.315 124.327 121.549C124.905 121.188 125.509 120.869 126.134 120.592C129.6 119.034 134.707 118.02 140.334 117.368C140.799 117.316 141.267 117.264 141.737 117.214C146.395 116.731 151.338 116.481 155.96 116.365C158.274 116.307 160.507 116.286 162.584 116.283C163.255 116.283 163.907 116.285 164.541 116.288H164.544C166.256 116.297 167.832 116.321 169.219 116.349C169.489 116.354 169.751 116.362 170.007 116.368H170.01C170.182 116.371 170.352 116.376 170.519 116.379C173.551 116.456 175.411 116.549 175.411 116.549L176.133 110.965L176.28 109.838L176.419 108.766V108.763L176.436 108.629L176.55 108.626L178.555 108.587L195.406 108.263L204.611 108.084L203.152 114.257L200.744 124.443C200.989 126.053 209.136 124.792 209.052 126.158Z" fill="#414648"/>
<path d="M159.93 163.013C159.242 163.359 158.549 163.7 157.853 164.03C156.714 164.574 155.565 165.099 154.406 165.605C152.479 164.524 150.575 163.395 148.681 162.241C145.591 160.355 142.531 158.404 139.462 156.499C139.003 156.211 138.546 155.928 138.087 155.647H138.084C136.82 153.795 135.531 151.866 134.23 149.879C134.211 149.851 134.194 149.824 134.178 149.796C133.843 149.29 133.511 148.781 133.181 148.268C131.101 145.052 129.01 141.699 126.98 138.275L132.12 135.906L141.676 131.503L143.324 130.745L148.063 139.954L152.29 148.169L153.231 149.997L159.93 163.013Z" fill="#414648"/>
<path d="M161.37 118.797L185.734 95.6054L192.486 76.7327L182.526 72.4575C177.41 77.295 171.879 92.3622 171.879 92.3622L155.114 113.416C154.983 113.46 154.853 113.507 154.724 113.563C153.969 113.891 153.313 114.407 152.818 115.059C152.324 115.711 152.008 116.479 151.902 117.286C151.796 118.094 151.903 118.915 152.212 119.671C152.521 120.426 153.023 121.09 153.668 121.598C154.313 122.106 155.08 122.441 155.895 122.571C156.709 122.701 157.544 122.621 158.319 122.34C159.093 122.058 159.781 121.584 160.315 120.963C160.85 120.343 161.213 119.597 161.37 118.797V118.797Z" fill="#FFC9B8"/>
<path d="M179.723 74.5647L192.357 78.5237L192.405 78.5159C197.107 77.7384 201.009 70.1575 203.455 63.9349C204.259 61.8824 204.244 59.6049 203.413 57.5629C202.581 55.521 200.995 53.8668 198.975 52.9348V52.9348C197.481 52.2572 195.824 52.0059 194.192 52.2091C192.56 52.4123 191.018 53.062 189.741 54.0848L183.253 59.3175L179.723 74.5647Z" fill="#BFDAA2"/>
<path d="M209.001 126.436L209.075 126.339C213.017 121.179 207.626 108.4 206.81 106.546L210.476 105.475L209.837 98.5864L209.529 95.5149L212.379 92.8436L212.389 92.7754L214.348 79.0083L216.913 69.8965C217.879 66.4519 217.9 62.8154 216.972 59.3604C216.044 55.9053 214.202 52.7563 211.633 50.2364L206.391 45.0989L200.111 35.3955L189.58 35.1272L185.794 41.7669C182.272 42.4763 179.115 44.3825 176.871 47.1536C174.627 49.9248 173.439 53.3851 173.514 56.9318L173.87 74.6079L170.092 96.5086L169.986 100.487L166.277 104.35L166.963 108.255L164.189 109.346L162.831 114.895C162.313 115.535 158.89 119.806 158.859 120.997C158.854 121.176 158.983 121.352 159.265 121.551C161.481 123.116 173.865 126.506 179.439 124.468C185.377 122.298 208.646 126.373 208.88 126.414L209.001 126.436Z" fill="#BFDAA2"/>
<path d="M193.926 32.1526C201.631 32.1526 207.876 25.9875 207.876 18.3825C207.876 10.7774 201.631 4.6123 193.926 4.6123C186.221 4.6123 179.975 10.7774 179.975 18.3825C179.975 25.9875 186.221 32.1526 193.926 32.1526Z" fill="#FFC9B8"/>
<path d="M192.224 32.3369C194.384 32.3701 196.544 32.2212 198.678 31.8917C200.794 31.4669 205.528 28.0431 206.847 25.9828C207.828 24.452 208.454 22.0615 208.808 20.3259C209.284 18.0291 209.265 15.6592 208.754 13.3697C208.243 11.0803 207.251 8.92225 205.841 7.03544C205.3 6.24624 204.552 5.61625 203.677 5.2121C203.6 5.18218 203.52 5.15566 203.439 5.13299C202.164 4.80195 201.019 4.10244 200.15 3.12426C199.982 2.92641 199.799 2.74079 199.604 2.56885C198.621 1.75078 197.457 1.17373 196.206 0.884873C194.186 0.351308 191.263 0.880942 187.518 2.46059C185.637 3.25423 183.579 2.96701 181.996 2.62809C181.907 2.61116 181.816 2.61747 181.73 2.6464C181.644 2.67533 181.568 2.72587 181.508 2.79299C180.835 3.41705 179.947 3.76638 179.023 3.77075C178.458 3.79528 177.864 4.56853 177.146 5.57689C176.984 5.80578 176.794 6.07293 176.657 6.23541L176.638 5.92324L176.318 6.27149C175.815 6.81882 175.461 7.48291 175.288 8.20192C175.115 8.92092 175.129 9.67146 175.329 10.3836C175.529 11.0958 175.908 11.7465 176.431 12.275C176.954 12.8035 177.605 13.1928 178.321 13.4065C178.891 13.5559 179.474 13.6477 180.062 13.6802C180.418 13.7118 180.786 13.7446 181.139 13.805C182.272 14.0341 183.326 14.5492 184.197 15.3002C185.069 16.0511 185.728 17.0123 186.11 18.0897C186.201 18.3388 186.348 18.564 186.541 18.7479C186.733 18.9319 186.966 19.0697 187.221 19.1507C187.476 19.2317 187.747 19.2538 188.012 19.2152C188.277 19.1766 188.53 19.0783 188.751 18.928C189.118 18.6454 189.55 18.4547 190.009 18.3722C190.467 18.2898 190.939 18.3181 191.384 18.4547C191.769 18.6658 192.068 19.001 192.232 19.4042C192.432 19.8534 192.762 20.2338 193.181 20.4969C194.615 21.2266 194.714 24.4592 194.199 27.1539C193.703 29.7514 192.721 31.6305 191.813 31.7234C191.113 31.7948 191.033 31.8439 190.983 31.966L190.937 32.0753L191.016 32.1775C191.402 32.3157 191.814 32.3701 192.224 32.3369V32.3369Z" fill="#414648"/>
<path d="M183.187 70.4015L177.808 59.8162C170.001 60.3426 154.505 69.2532 154.505 69.2532L125.186 75.389C124.317 75.0595 123.376 74.9616 122.457 75.1052C121.538 75.2488 120.673 75.6289 119.95 76.2071C119.227 76.7854 118.672 77.5414 118.339 78.3991C118.006 79.2568 117.908 80.1859 118.054 81.0929C118.201 81.9999 118.587 82.8528 119.174 83.5657C119.76 84.2786 120.527 84.8263 121.396 85.1538C122.266 85.4813 123.207 85.577 124.126 85.4312C125.045 85.2854 125.908 84.9033 126.63 84.3234L163.925 81.6846L183.187 70.4015Z" fill="#FFC9B8"/>
<path d="M181.018 72.1395L195.066 61.8347L197.541 53.0326C198.02 51.3029 198 49.4752 197.482 47.7563C196.965 46.0373 195.97 44.4955 194.611 43.3051V43.3051C192.758 41.7037 190.359 40.8565 187.897 40.9349C185.435 41.0133 183.096 42.0114 181.351 43.7274C176.065 48.9358 170.035 56.2021 171.33 61.2407L171.343 61.2918L181.018 72.1395Z" fill="#BFDAA2"/>
<path d="M163.628 99.7021H126.039V104.649H163.628V99.7021Z" fill="white"/>
<path d="M67.567 99.7021H29.978V104.649H67.567V99.7021Z" fill="white"/>
<path d="M71.9561 75.9121V99.4664C71.9563 99.7666 72.0772 100.054 72.2922 100.267C72.5073 100.479 72.7988 100.598 73.103 100.598H108.466C108.77 100.598 109.061 100.479 109.276 100.267C109.491 100.054 109.612 99.7666 109.613 99.4664V75.9121C109.612 75.6121 109.491 75.3247 109.276 75.1128C109.061 74.9008 108.77 74.7816 108.466 74.7812H73.103C72.7991 74.7816 72.5078 74.9008 72.2929 75.1128C72.0779 75.3247 71.9568 75.6121 71.9561 75.9121Z" fill="#414648"/>
<path d="M72.7856 76.2049V99.1756C72.7859 99.336 72.8506 99.4897 72.9655 99.6031C73.0804 99.7165 73.2361 99.7804 73.3986 99.7806H108.171C108.334 99.7804 108.49 99.7165 108.604 99.6031C108.719 99.4897 108.784 99.336 108.784 99.1756V76.2049C108.784 76.0443 108.72 75.8903 108.605 75.7767C108.49 75.663 108.334 75.599 108.171 75.5986H73.3986C73.2359 75.599 73.08 75.663 72.9651 75.7767C72.8502 75.8903 72.7857 76.0443 72.7856 76.2049Z" fill="#BFDAA2"/>
<path d="M71.2167 104.06C71.2815 104.14 71.3638 104.205 71.4576 104.249C71.5513 104.293 71.654 104.316 71.7579 104.316H109.623C109.727 104.315 109.829 104.293 109.922 104.249C110.016 104.204 110.098 104.14 110.163 104.061C110.229 103.982 110.275 103.889 110.299 103.79C110.324 103.69 110.325 103.587 110.304 103.487L109.716 100.731C109.692 100.619 109.64 100.514 109.564 100.427C109.488 100.339 109.391 100.272 109.283 100.231C109.204 100.201 109.12 100.185 109.035 100.185H72.3433C72.2587 100.185 72.1748 100.201 72.0961 100.231C71.9873 100.272 71.8906 100.339 71.8148 100.427C71.739 100.514 71.6866 100.619 71.6622 100.731L71.0744 103.487C71.0535 103.587 71.0554 103.69 71.0801 103.789C71.1047 103.888 71.1514 103.981 71.2167 104.06V104.06Z" fill="#414648"/>
<path d="M107.736 101.372H108.63C108.705 101.372 108.766 101.312 108.766 101.238V100.816C108.766 100.742 108.705 100.682 108.63 100.682H107.736C107.661 100.682 107.6 100.742 107.6 100.816V101.238C107.6 101.312 107.661 101.372 107.736 101.372Z" fill="#414648"/>
<path d="M105.403 101.372H106.298C106.373 101.372 106.434 101.312 106.434 101.238V100.816C106.434 100.742 106.373 100.682 106.298 100.682H105.403C105.328 100.682 105.267 100.742 105.267 100.816V101.238C105.267 101.312 105.328 101.372 105.403 101.372Z" fill="#414648"/>
<path d="M103.071 101.372H103.965C104.04 101.372 104.101 101.312 104.101 101.238V100.816C104.101 100.742 104.04 100.682 103.965 100.682H103.071C102.996 100.682 102.935 100.742 102.935 100.816V101.238C102.935 101.312 102.996 101.372 103.071 101.372Z" fill="#414648"/>
<path d="M100.739 101.372H101.633C101.708 101.372 101.769 101.312 101.769 101.238V100.816C101.769 100.742 101.708 100.682 101.633 100.682H100.739C100.664 100.682 100.603 100.742 100.603 100.816V101.238C100.603 101.312 100.664 101.372 100.739 101.372Z" fill="#414648"/>
<path d="M98.4062 101.372H99.3006C99.3757 101.372 99.4365 101.312 99.4365 101.238V100.816C99.4365 100.742 99.3757 100.682 99.3006 100.682H98.4062C98.3312 100.682 98.2703 100.742 98.2703 100.816V101.238C98.2703 101.312 98.3312 101.372 98.4062 101.372Z" fill="#414648"/>
<path d="M96.0737 101.372H96.9681C97.0431 101.372 97.104 101.312 97.104 101.238V100.816C97.104 100.742 97.0431 100.682 96.9681 100.682H96.0737C95.9986 100.682 95.9378 100.742 95.9378 100.816V101.238C95.9378 101.312 95.9986 101.372 96.0737 101.372Z" fill="#414648"/>
<path d="M93.7412 101.372H94.6356C94.7106 101.372 94.7715 101.312 94.7715 101.238V100.816C94.7715 100.742 94.7106 100.682 94.6356 100.682H93.7412C93.6661 100.682 93.6053 100.742 93.6053 100.816V101.238C93.6053 101.312 93.6661 101.372 93.7412 101.372Z" fill="#414648"/>
<path d="M91.4087 101.372H92.303C92.3781 101.372 92.439 101.312 92.439 101.238V100.816C92.439 100.742 92.3781 100.682 92.303 100.682H91.4087C91.3336 100.682 91.2727 100.742 91.2727 100.816V101.238C91.2727 101.312 91.3336 101.372 91.4087 101.372Z" fill="#414648"/>
<path d="M89.0761 101.372H89.9705C90.0456 101.372 90.1064 101.312 90.1064 101.238V100.816C90.1064 100.742 90.0456 100.682 89.9705 100.682H89.0761C89.0011 100.682 88.9402 100.742 88.9402 100.816V101.238C88.9402 101.312 89.0011 101.372 89.0761 101.372Z" fill="#414648"/>
<path d="M86.7436 101.372H87.638C87.7131 101.372 87.7739 101.312 87.7739 101.238V100.816C87.7739 100.742 87.7131 100.682 87.638 100.682H86.7436C86.6686 100.682 86.6077 100.742 86.6077 100.816V101.238C86.6077 101.312 86.6686 101.372 86.7436 101.372Z" fill="#414648"/>
<path d="M84.4111 101.372H85.3055C85.3805 101.372 85.4414 101.312 85.4414 101.238V100.816C85.4414 100.742 85.3805 100.682 85.3055 100.682H84.4111C84.336 100.682 84.2752 100.742 84.2752 100.816V101.238C84.2752 101.312 84.336 101.372 84.4111 101.372Z" fill="#414648"/>
<path d="M82.0786 101.372H82.973C83.048 101.372 83.1089 101.312 83.1089 101.238V100.816C83.1089 100.742 83.048 100.682 82.973 100.682H82.0786C82.0035 100.682 81.9427 100.742 81.9427 100.816V101.238C81.9427 101.312 82.0035 101.372 82.0786 101.372Z" fill="#414648"/>
<path d="M79.7466 101.372H80.6409C80.716 101.372 80.7769 101.312 80.7769 101.238V100.816C80.7769 100.742 80.716 100.682 80.6409 100.682H79.7466C79.6715 100.682 79.6106 100.742 79.6106 100.816V101.238C79.6106 101.312 79.6715 101.372 79.7466 101.372Z" fill="#414648"/>
<path d="M77.414 101.372H78.3084C78.3835 101.372 78.4443 101.312 78.4443 101.238V100.816C78.4443 100.742 78.3835 100.682 78.3084 100.682H77.414C77.339 100.682 77.2781 100.742 77.2781 100.816V101.238C77.2781 101.312 77.339 101.372 77.414 101.372Z" fill="#414648"/>
<path d="M75.0815 101.372H75.9759C76.051 101.372 76.1118 101.312 76.1118 101.238V100.816C76.1118 100.742 76.051 100.682 75.9759 100.682H75.0815C75.0064 100.682 74.9456 100.742 74.9456 100.816V101.238C74.9456 101.312 75.0064 101.372 75.0815 101.372Z" fill="#414648"/>
<path d="M72.749 101.372H73.6434C73.7184 101.372 73.7793 101.312 73.7793 101.238V100.816C73.7793 100.742 73.7184 100.682 73.6434 100.682H72.749C72.6739 100.682 72.6131 100.742 72.6131 100.816V101.238C72.6131 101.312 72.6739 101.372 72.749 101.372Z" fill="#414648"/>
<path d="M107.764 102.523H108.658C108.733 102.523 108.794 102.463 108.794 102.389V101.967C108.794 101.893 108.733 101.833 108.658 101.833H107.764C107.689 101.833 107.628 101.893 107.628 101.967V102.389C107.628 102.463 107.689 102.523 107.764 102.523Z" fill="#414648"/>
<path d="M105.431 102.523H106.326C106.401 102.523 106.461 102.463 106.461 102.389V101.967C106.461 101.893 106.401 101.833 106.326 101.833H105.431C105.356 101.833 105.295 101.893 105.295 101.967V102.389C105.295 102.463 105.356 102.523 105.431 102.523Z" fill="#414648"/>
<path d="M103.099 102.523H103.993C104.068 102.523 104.129 102.463 104.129 102.389V101.967C104.129 101.893 104.068 101.833 103.993 101.833H103.099C103.024 101.833 102.963 101.893 102.963 101.967V102.389C102.963 102.463 103.024 102.523 103.099 102.523Z" fill="#414648"/>
<path d="M100.766 102.523H101.66C101.736 102.523 101.796 102.463 101.796 102.389V101.967C101.796 101.893 101.736 101.833 101.66 101.833H100.766C100.691 101.833 100.63 101.893 100.63 101.967V102.389C100.63 102.463 100.691 102.523 100.766 102.523Z" fill="#414648"/>
<path d="M98.4336 102.523H99.3279C99.403 102.523 99.4639 102.463 99.4639 102.389V101.967C99.4639 101.893 99.403 101.833 99.3279 101.833H98.4336C98.3585 101.833 98.2976 101.893 98.2976 101.967V102.389C98.2976 102.463 98.3585 102.523 98.4336 102.523Z" fill="#414648"/>
<path d="M96.101 102.523H96.9954C97.0705 102.523 97.1313 102.463 97.1313 102.389V101.967C97.1313 101.893 97.0705 101.833 96.9954 101.833H96.101C96.026 101.833 95.9651 101.893 95.9651 101.967V102.389C95.9651 102.463 96.026 102.523 96.101 102.523Z" fill="#414648"/>
<path d="M93.7685 102.523H94.6629C94.738 102.523 94.7988 102.463 94.7988 102.389V101.967C94.7988 101.893 94.738 101.833 94.6629 101.833H93.7685C93.6935 101.833 93.6326 101.893 93.6326 101.967V102.389C93.6326 102.463 93.6935 102.523 93.7685 102.523Z" fill="#414648"/>
<path d="M91.436 102.523H92.3304C92.4055 102.523 92.4663 102.463 92.4663 102.389V101.967C92.4663 101.893 92.4055 101.833 92.3304 101.833H91.436C91.3609 101.833 91.3001 101.893 91.3001 101.967V102.389C91.3001 102.463 91.3609 102.523 91.436 102.523Z" fill="#414648"/>
<path d="M89.104 102.523H89.9983C90.0734 102.523 90.1343 102.463 90.1343 102.389V101.967C90.1343 101.893 90.0734 101.833 89.9983 101.833H89.104C89.0289 101.833 88.968 101.893 88.968 101.967V102.389C88.968 102.463 89.0289 102.523 89.104 102.523Z" fill="#414648"/>
<path d="M86.7715 102.523H87.6658C87.7409 102.523 87.8018 102.463 87.8018 102.389V101.967C87.8018 101.893 87.7409 101.833 87.6658 101.833H86.7715C86.6964 101.833 86.6355 101.893 86.6355 101.967V102.389C86.6355 102.463 86.6964 102.523 86.7715 102.523Z" fill="#414648"/>
<path d="M84.4389 102.523H85.3333C85.4084 102.523 85.4692 102.463 85.4692 102.389V101.967C85.4692 101.893 85.4084 101.833 85.3333 101.833H84.4389C84.3639 101.833 84.303 101.893 84.303 101.967V102.389C84.303 102.463 84.3639 102.523 84.4389 102.523Z" fill="#414648"/>
<path d="M82.1064 102.523H83.0008C83.0759 102.523 83.1367 102.463 83.1367 102.389V101.967C83.1367 101.893 83.0759 101.833 83.0008 101.833H82.1064C82.0313 101.833 81.9705 101.893 81.9705 101.967V102.389C81.9705 102.463 82.0313 102.523 82.1064 102.523Z" fill="#414648"/>
<path d="M79.7739 102.523H80.6683C80.7433 102.523 80.8042 102.463 80.8042 102.389V101.967C80.8042 101.893 80.7433 101.833 80.6683 101.833H79.7739C79.6988 101.833 79.638 101.893 79.638 101.967V102.389C79.638 102.463 79.6988 102.523 79.7739 102.523Z" fill="#414648"/>
<path d="M77.4414 102.523H78.3357C78.4108 102.523 78.4717 102.463 78.4717 102.389V101.967C78.4717 101.893 78.4108 101.833 78.3357 101.833H77.4414C77.3663 101.833 77.3055 101.893 77.3055 101.967V102.389C77.3055 102.463 77.3663 102.523 77.4414 102.523Z" fill="#414648"/>
<path d="M75.1089 102.523H76.0032C76.0783 102.523 76.1392 102.463 76.1392 102.389V101.967C76.1392 101.893 76.0783 101.833 76.0032 101.833H75.1089C75.0338 101.833 74.9729 101.893 74.9729 101.967V102.389C74.9729 102.463 75.0338 102.523 75.1089 102.523Z" fill="#414648"/>
<path d="M72.7763 102.523H73.6707C73.7458 102.523 73.8066 102.463 73.8066 102.389V101.967C73.8066 101.893 73.7458 101.833 73.6707 101.833H72.7763C72.7013 101.833 72.6404 101.893 72.6404 101.967V102.389C72.6404 102.463 72.7013 102.523 72.7763 102.523Z" fill="#414648"/>
<path d="M88.4042 103.905H97.4622C97.5373 103.905 97.5981 103.845 97.5981 103.771V103.348C97.5981 103.274 97.5373 103.214 97.4622 103.214H88.4042C88.3292 103.214 88.2683 103.274 88.2683 103.348V103.771C88.2683 103.845 88.3292 103.905 88.4042 103.905Z" fill="#414648"/>
</g>
<defs>
<clipPath id="clip0_97_173">
<rect width="232" height="174" fill="white"/>
</clipPath>
</defs>
</svg>
