<svg width="283" height="230" viewBox="0 0 283 230" fill="none" xmlns="http://www.w3.org/2000/svg">
<g clip-path="url(#clip0_97_239)">
<path d="M225.926 41.8951C224.456 58.126 220.268 75.2407 213.7 91.7542C205.577 112.175 194.479 130.162 181.606 143.77L180.892 143.146C193.702 129.603 204.75 111.696 212.838 91.3593C220.149 72.9815 224.497 53.8567 225.418 36.0608L226.331 36.2139C226.234 38.0934 226.099 39.9871 225.926 41.8951Z" fill="#CFD1D0"/>
<path d="M231.781 136.162C213.7 164.987 191.764 185.582 170.013 194.154L169.573 193.346C191.173 184.833 212.981 164.343 230.98 135.65L231.781 136.162Z" fill="#CFD1D0"/>
<path d="M225.487 62.1033C224.017 78.3343 219.829 95.449 213.261 111.962C205.138 132.383 194.04 150.37 181.167 163.978L180.453 163.354C193.264 149.811 204.311 131.904 212.399 111.568C219.71 93.1898 224.058 74.0649 224.979 56.269L225.892 56.4222C225.795 58.3017 225.66 60.1954 225.487 62.1033Z" fill="#CFD1D0"/>
<path d="M22.5026 103.773H10.6391C10.3857 103.774 10.1354 103.717 9.90703 103.606C9.67868 103.496 9.4782 103.336 9.32062 103.137C9.16496 102.943 9.05514 102.716 8.9994 102.474C8.94366 102.231 8.94345 101.979 8.99878 101.737C10.1287 96.7409 10.0577 91.5477 8.79169 86.5849C8.71161 86.2581 8.73098 85.9148 8.84728 85.5991C8.96359 85.2835 9.17152 85.01 9.4443 84.8138C15.5445 80.4174 20.3486 80.545 23.7233 85.1936C23.8754 85.4054 23.9765 85.6498 24.0185 85.9074C24.9202 91.3392 24.9701 96.8788 24.1664 102.326C24.1106 102.728 23.9112 103.096 23.6053 103.362C23.2994 103.628 22.9077 103.774 22.5026 103.773V103.773Z" fill="#CFD1D0"/>
<path d="M18.825 91.8686H14.744C14.5183 91.8686 14.3019 91.7788 14.1423 91.6189C13.9827 91.459 13.8931 91.2421 13.8931 91.016C13.8931 90.7898 13.9827 90.573 14.1423 90.4131C14.3019 90.2532 14.5183 90.1633 14.744 90.1633H18.825C19.0504 90.1638 19.2663 90.2538 19.4255 90.4137C19.5847 90.5735 19.6741 90.7901 19.6741 91.016C19.6741 91.2418 19.5847 91.4584 19.4255 91.6183C19.2663 91.7781 19.0504 91.8681 18.825 91.8686V91.8686Z" fill="white"/>
<path d="M18.825 94.8588H14.744C14.5183 94.8588 14.3019 94.769 14.1423 94.6091C13.9827 94.4492 13.8931 94.2323 13.8931 94.0062C13.8931 93.7801 13.9827 93.5632 14.1423 93.4033C14.3019 93.2434 14.5183 93.1536 14.744 93.1536H18.825C19.0504 93.154 19.2663 93.2441 19.4255 93.4039C19.5847 93.5638 19.6741 93.7804 19.6741 94.0062C19.6741 94.232 19.5847 94.4486 19.4255 94.6085C19.2663 94.7683 19.0504 94.8584 18.825 94.8588V94.8588Z" fill="white"/>
<path d="M18.825 97.8491H14.744C14.5183 97.8491 14.3019 97.7592 14.1423 97.5993C13.9827 97.4394 13.8931 97.2226 13.8931 96.9964C13.8931 96.7703 13.9827 96.5534 14.1423 96.3935C14.3019 96.2336 14.5183 96.1438 14.744 96.1438H18.825C19.0504 96.1443 19.2663 96.2343 19.4255 96.3942C19.5847 96.554 19.6741 96.7706 19.6741 96.9964C19.6741 97.2223 19.5847 97.4389 19.4255 97.5987C19.2663 97.7586 19.0504 97.8486 18.825 97.8491V97.8491Z" fill="white"/>
<path d="M238.109 156.851H226.246C225.992 156.851 225.742 156.794 225.513 156.684C225.285 156.574 225.085 156.413 224.927 156.214C224.771 156.02 224.662 155.794 224.606 155.551C224.55 155.309 224.55 155.057 224.605 154.814C225.735 149.819 225.664 144.625 224.398 139.662C224.318 139.336 224.337 138.992 224.454 138.677C224.57 138.361 224.778 138.088 225.051 137.891C231.151 133.495 235.955 133.623 239.33 138.271C239.482 138.483 239.583 138.727 239.625 138.985C240.527 144.417 240.577 149.956 239.773 155.404C239.717 155.806 239.518 156.174 239.212 156.44C238.906 156.706 238.514 156.852 238.109 156.851V156.851Z" fill="#CFD1D0"/>
<path d="M234.431 144.946H230.35C230.125 144.946 229.909 144.855 229.75 144.696C229.59 144.536 229.501 144.319 229.501 144.093C229.501 143.868 229.59 143.651 229.75 143.491C229.909 143.331 230.125 143.241 230.35 143.241H234.431C234.657 143.241 234.873 143.331 235.033 143.49C235.192 143.65 235.282 143.867 235.282 144.093C235.282 144.32 235.192 144.536 235.033 144.696C234.873 144.856 234.657 144.946 234.431 144.946Z" fill="white"/>
<path d="M234.431 147.937H230.35C230.125 147.936 229.909 147.846 229.75 147.686C229.59 147.526 229.501 147.31 229.501 147.084C229.501 146.858 229.59 146.641 229.75 146.482C229.909 146.322 230.125 146.232 230.35 146.231H234.431C234.657 146.231 234.873 146.321 235.033 146.481C235.192 146.641 235.282 146.858 235.282 147.084C235.282 147.31 235.192 147.527 235.033 147.687C234.873 147.847 234.657 147.937 234.431 147.937Z" fill="white"/>
<path d="M234.431 150.927H230.35C230.125 150.926 229.909 150.836 229.75 150.676C229.59 150.517 229.501 150.3 229.501 150.074C229.501 149.848 229.59 149.632 229.75 149.472C229.909 149.312 230.125 149.222 230.35 149.221H234.431C234.657 149.221 234.873 149.311 235.033 149.471C235.192 149.631 235.282 149.848 235.282 150.074C235.282 150.3 235.192 150.517 235.033 150.677C234.873 150.837 234.657 150.927 234.431 150.927Z" fill="white"/>
<path d="M283 229.555C283 229.614 282.989 229.672 282.967 229.726C282.944 229.78 282.912 229.829 282.87 229.87C282.829 229.911 282.78 229.944 282.726 229.966C282.672 229.989 282.614 230 282.556 230H0.443896C0.326168 230 0.213265 229.953 0.130019 229.87C0.0467725 229.786 0 229.673 0 229.555C0 229.437 0.0467725 229.324 0.130019 229.241C0.213265 229.157 0.326168 229.11 0.443896 229.11H282.556C282.614 229.11 282.672 229.122 282.726 229.144C282.78 229.166 282.829 229.199 282.87 229.24C282.912 229.282 282.944 229.331 282.967 229.385C282.989 229.439 283 229.497 283 229.555V229.555Z" fill="#A0A3A3"/>
<path d="M74.4189 202.321L73.679 192.009C68.8321 189.581 63.4671 188.375 58.0498 188.497C65.6712 194.4 65.0608 206.198 70.339 214.273C72.0045 216.779 74.2114 218.877 76.7961 220.412C79.3808 221.947 82.277 222.879 85.2702 223.14L91.6131 226.796C92.3387 221.991 92.016 217.085 90.6672 212.417C89.3185 207.748 86.9757 203.428 83.8004 199.754C81.9987 197.711 79.9474 195.903 77.6949 194.374C76.3084 198.362 74.4189 202.321 74.4189 202.321Z" fill="#CFD1D0"/>
<path d="M208.581 203.816L209.321 193.504C214.168 191.076 219.533 189.871 224.95 189.992C217.329 195.895 217.939 207.694 212.661 215.768C210.995 218.274 208.789 220.372 206.204 221.907C203.619 223.442 200.723 224.374 197.73 224.635L191.387 228.291C190.661 223.486 190.984 218.58 192.333 213.912C193.681 209.243 196.024 204.923 199.2 201.25C201.001 199.206 203.053 197.398 205.305 195.869C206.692 199.858 208.581 203.816 208.581 203.816Z" fill="#CFD1D0"/>
<path d="M138.143 87.4443C142.057 87.4443 145.23 84.2647 145.23 80.3424C145.23 76.4201 142.057 73.2405 138.143 73.2405C134.228 73.2405 131.055 76.4201 131.055 80.3424C131.055 84.2647 134.228 87.4443 138.143 87.4443Z" fill="#BFDAA2"/>
<path d="M141.781 77.3824C141.675 77.2805 141.533 77.2236 141.386 77.2236C141.238 77.2236 141.096 77.2805 140.99 77.3824C139.486 78.5843 138.135 79.9668 136.968 81.4988C136.681 80.9432 136.395 80.3876 136.108 79.832C135.778 79.1907 134.812 79.7573 135.142 80.398C135.561 81.2107 135.98 82.0233 136.399 82.836C136.45 82.9189 136.521 82.9875 136.606 83.035C136.69 83.0826 136.786 83.1076 136.883 83.1076C136.98 83.1076 137.075 83.0826 137.16 83.035C137.244 82.9875 137.315 82.9189 137.366 82.836C138.61 81.0805 140.096 79.5113 141.781 78.1753C141.885 78.0697 141.944 77.9273 141.944 77.7789C141.944 77.6304 141.885 77.488 141.781 77.3824V77.3824Z" fill="white"/>
<path d="M106.43 100.481L95.7427 83.6621L108.119 77.0205L111.367 89.8524L134.254 102.245C135.157 101.919 136.136 101.864 137.07 102.086C138.005 102.308 138.855 102.797 139.516 103.495C140.178 104.192 140.623 105.068 140.796 106.014C140.97 106.96 140.865 107.937 140.495 108.825C140.124 109.712 139.504 110.473 138.709 111.013C137.915 111.554 136.981 111.851 136.02 111.869C135.06 111.887 134.116 111.624 133.302 111.113C132.488 110.602 131.84 109.865 131.437 108.991L106.43 100.481Z" fill="#FFC9B8"/>
<path d="M87.9341 63.4897C84.576 68.4303 96.5099 86.3888 96.5099 86.3888C97.0912 85.1331 102.649 99.2343 103.579 98.4014C106.225 96.0339 110.366 89.4394 112.668 89.1454C113.985 88.9773 109.615 79.6219 109.615 79.6219C109.615 79.6219 107.618 74.0976 104.908 67.0408C104.179 65.0315 102.954 63.2397 101.348 61.8322C99.7421 60.4248 97.8067 59.4474 95.7222 58.9911C95.7222 58.9911 91.2923 58.5492 87.9341 63.4897Z" fill="#414648"/>
<path d="M88.0983 224.455L93.174 224.454L95.5886 204.836L88.0972 204.837L88.0983 224.455Z" fill="#FFC9B8"/>
<path d="M86.8032 222.794L88.2319 222.794L93.8097 220.521L96.7993 222.794H96.7997C98.4891 222.794 100.109 223.466 101.304 224.663C102.499 225.86 103.17 227.484 103.17 229.177V229.384L86.8035 229.385L86.8032 222.794Z" fill="#414648"/>
<path d="M111.679 224.455L116.755 224.454L119.17 204.836L111.678 204.837L111.679 224.455Z" fill="#FFC9B8"/>
<path d="M110.384 222.794L111.813 222.794L117.391 220.521L120.38 222.794H120.381C122.07 222.794 123.69 223.466 124.885 224.663C126.08 225.86 126.751 227.484 126.751 229.177V229.384L110.385 229.385L110.384 222.794Z" fill="#414648"/>
<path d="M113.876 117.201L80.8613 118.028C74.591 121.441 74.4958 128.827 76.5503 137.597C76.5503 137.597 75.8567 142.809 77.2438 144.199C78.631 145.589 79.3245 145.589 78.631 148.022C77.9374 150.454 81.6018 154.427 81.1567 154.873C80.7116 155.319 79.6713 157.751 79.6713 157.751L83.1391 177.558C83.1391 177.558 85.5666 211.96 86.2601 212.655C86.9537 213.35 87.6473 212.655 86.9537 214.392C86.2601 216.13 85.5666 215.435 86.2601 216.13C86.8745 216.794 87.4533 217.49 87.994 218.215H96.3782C96.3782 218.215 97.0104 214.74 97.0104 214.392C97.0104 214.045 97.7039 211.96 97.7039 211.613C97.7039 211.265 97.0909 210.651 97.0909 210.651C96.8791 209.944 96.736 209.219 96.6636 208.485C96.6636 207.79 94.5829 181.033 94.5829 181.033L98.7443 146.284L108.801 180.338C108.801 180.338 108.801 210.223 109.494 210.918C110.188 211.613 110.188 211.265 109.841 212.655C109.494 214.045 108.107 213.697 109.148 214.74C110.188 215.782 110.535 214.045 110.188 215.782L109.841 217.52L120.245 217.669C120.245 217.669 121.632 214.74 120.938 213.697C120.245 212.655 120.286 212.94 121.132 211.234C121.979 209.528 122.325 209.18 121.979 208.833C121.632 208.485 121.632 206.637 121.632 206.637L119.898 173.388C119.898 173.388 119.551 138.292 119.551 137.249C119.525 136.713 119.624 136.178 119.839 135.686V134.271L118.511 129.257L113.876 117.201Z" fill="#414648"/>
<path d="M94.0436 48.4108C99.7089 48.4108 104.302 43.8087 104.302 38.1318C104.302 32.4548 99.7089 27.8528 94.0436 27.8528C88.3783 27.8528 83.7856 32.4548 83.7856 38.1318C83.7856 43.8087 88.3783 48.4108 94.0436 48.4108Z" fill="#FFC9B8"/>
<path d="M99.1725 55.2044C101.382 56.5209 102.704 58.9398 103.463 61.4013C104.868 65.9583 105.714 70.67 105.982 75.432L106.783 89.6887L116.71 120.045C108.107 127.34 75.7677 121.703 75.7677 121.703C75.7677 121.703 74.775 121.372 75.7677 120.377C76.7604 119.382 77.7269 120.263 76.7342 119.269C75.7415 118.274 76.4258 119.382 76.7567 118.387C77.0876 117.393 76.7567 118.056 76.4258 117.724C76.0949 117.393 78.9875 114.408 78.9875 114.408L76.3403 96.9834L73.0312 61.836C77.0021 56.8623 84.9879 53.9303 84.9879 53.9303L87.0514 50.2085L97.3686 51.0356L99.1725 55.2044Z" fill="#414648"/>
<path d="M102.5 32.6706C103.297 33.2665 103.888 34.0979 104.189 35.0478C104.304 33.4955 104.312 31.9369 104.211 30.3835C104.09 29.2919 103.323 29.0464 102.435 28.7618C101.633 28.5048 100.726 28.2144 100.482 27.1548C97.2573 24.0115 91.6441 24.17 87.8025 25.2664C85.6887 25.8697 84.4724 26.6449 84.3636 27.099L84.341 27.1925L84.2552 27.2355C82.6258 28.0519 82.3086 30.6298 82.3296 32.6486C82.3693 36.4522 83.6799 40.7721 84.4182 41.123C84.4573 41.1416 84.4672 41.1343 84.4841 41.1202C85.5958 40.2299 86.9522 41.1879 87.5482 41.7086C87.8998 39.3446 89.0318 37.1669 90.7634 35.5232C92.495 33.8795 94.7264 32.8646 97.1011 32.6408C97.8766 32.5657 98.646 32.4364 99.4035 32.2539C99.7878 32.1543 100.183 32.1023 100.58 32.0992C101.263 32.0888 101.933 32.2882 102.5 32.6706V32.6706Z" fill="#414648"/>
<path d="M166.18 125.392L185.913 105.312L191.111 89.2534L182.745 85.8625C178.601 90.0515 174.335 102.875 174.335 102.875L160.867 120.988C160.759 121.028 160.652 121.071 160.546 121.121C159.926 121.414 159.392 121.863 158.996 122.424C158.599 122.984 158.354 123.638 158.283 124.321C158.212 125.005 158.319 125.695 158.592 126.325C158.865 126.955 159.296 127.504 159.843 127.919C160.39 128.333 161.034 128.599 161.714 128.692C162.393 128.784 163.085 128.699 163.722 128.444C164.359 128.19 164.92 127.776 165.351 127.241C165.781 126.706 166.067 126.069 166.18 125.392Z" fill="#FFC9B8"/>
<path d="M180.463 87.6996L191.043 90.7665L191.082 90.7589C194.971 90.0022 198.048 83.526 199.943 78.2264C200.567 76.4784 200.505 74.5583 199.77 72.8543C199.035 71.1504 197.682 69.7896 195.984 69.0471V69.0471C194.728 68.5079 193.346 68.3316 191.995 68.538C190.644 68.7444 189.378 69.3254 188.339 70.2153L183.064 74.767L180.463 87.6996Z" fill="#BFDAA2"/>
<path d="M171.411 223.858L165.721 223.858L163.014 201.866L171.412 201.867L171.411 223.858Z" fill="#FFC9B8"/>
<path d="M172.863 221.997L171.261 221.997L165.008 219.448L161.657 221.996H161.657C159.763 221.996 157.947 222.75 156.607 224.092C155.268 225.434 154.516 227.254 154.516 229.152V229.384L172.862 229.385L172.863 221.997Z" fill="#414648"/>
<path d="M196.658 223.858L190.968 223.858L188.262 201.866L196.66 201.867L196.658 223.858Z" fill="#FFC9B8"/>
<path d="M198.11 221.997L196.508 221.997L190.255 219.448L186.904 221.996H186.904C185.01 221.996 183.194 222.75 181.854 224.092C180.515 225.434 179.763 227.254 179.763 229.152V229.384L198.109 229.385L198.11 221.997Z" fill="#414648"/>
<path d="M205.334 129.131C205.334 129.131 205.999 137.121 204.338 144.777C202.677 152.433 202.677 173.996 202.677 173.996L199.022 216.013L188.06 215.015L185.07 144.777L174.439 168.411L175.436 171.74L174.109 172.572C174.109 172.572 175.104 179.064 174.439 179.064C173.775 179.064 172.114 180.062 172.114 180.062L173.443 214.349L162.148 214.016L158.162 165.748L162.48 138.119L162.812 132.793L164.307 132.855L165.069 130.629L166.467 126.801L205.334 129.131Z" fill="#414648"/>
<path d="M205.909 130.809L205.968 130.726C209.13 126.29 204.374 115.631 203.657 114.085L206.678 113.103L205.998 107.308L205.675 104.725L207.984 102.411L207.991 102.353L209.32 90.7025L211.252 82.9641C211.98 80.0387 211.918 76.9719 211.072 74.0785C210.226 71.1851 208.628 68.5693 206.44 66.4997L201.974 62.2803L196.546 54.2332H187.794L184.793 59.9133C181.883 60.5871 179.302 62.2624 177.498 64.6472C175.695 67.0321 174.783 69.9755 174.923 72.9645L175.603 87.8618L172.94 106.41L172.938 109.767L169.942 113.104L170.596 116.382L168.316 117.361L167.309 122.07C166.892 122.621 164.142 126.296 164.142 127.301C164.142 127.451 164.253 127.597 164.491 127.759C166.366 129.031 176.726 131.624 181.312 129.785C186.196 127.828 205.612 130.764 205.808 130.794L205.909 130.809Z" fill="#BFDAA2"/>
<path d="M191.039 51.6354C197.441 51.6354 202.631 46.4351 202.631 40.0202C202.631 33.6053 197.441 28.405 191.039 28.405C184.637 28.405 179.448 33.6053 179.448 40.0202C179.448 46.4351 184.637 51.6354 191.039 51.6354Z" fill="#FFC9B8"/>
<path d="M189.929 51.8236C191.724 51.8052 193.514 51.6332 195.28 51.3095C197.029 50.9059 200.886 47.9171 201.937 46.1515C202.718 44.8396 203.187 42.8105 203.443 41.3393C203.788 39.3923 203.722 37.3944 203.247 35.4749C202.773 33.5553 201.902 31.757 200.69 30.1963C200.223 29.5424 199.588 29.0273 198.853 28.7053C198.788 28.6817 198.721 28.6611 198.654 28.6437C197.588 28.3919 196.621 27.8267 195.878 27.0205C195.734 26.8573 195.578 26.7047 195.412 26.564C194.578 25.8952 193.599 25.4337 192.553 25.217C190.864 24.8105 188.448 25.3199 185.371 26.7324C183.826 27.442 182.11 27.244 180.788 26.9923C180.714 26.9799 180.638 26.9872 180.568 27.0134C180.497 27.0397 180.435 27.0839 180.387 27.1418C179.841 27.6825 179.111 27.9961 178.344 28.0197C177.875 28.0525 177.398 28.7173 176.824 29.583C176.694 29.7795 176.542 30.0088 176.432 30.1488L176.41 29.886L176.151 30.1865C175.745 30.6588 175.465 31.2264 175.337 31.8364C175.209 32.4464 175.237 33.079 175.419 33.6752C175.6 34.2714 175.929 34.8119 176.376 35.2464C176.822 35.6808 177.37 35.995 177.97 36.1598C178.446 36.2736 178.933 36.3384 179.422 36.3532C179.718 36.3722 180.025 36.3919 180.32 36.4353C181.266 36.6041 182.152 37.0158 182.892 37.6304C183.632 38.2449 184.2 39.0412 184.541 39.9415C184.622 40.1495 184.749 40.3362 184.913 40.4872C185.077 40.6382 185.274 40.7494 185.487 40.8122C185.701 40.8751 185.926 40.8879 186.146 40.8496C186.365 40.8113 186.573 40.7231 186.753 40.5916C187.052 40.3453 187.407 40.1753 187.786 40.0959C188.165 40.0166 188.557 40.0303 188.93 40.1359C189.254 40.3056 189.51 40.5819 189.655 40.9183C189.831 41.2928 190.113 41.6064 190.467 41.8193C191.674 42.4038 191.826 45.1275 191.457 47.4108C191.101 49.6118 190.327 51.2173 189.574 51.3152C188.995 51.3904 188.93 51.4335 188.89 51.5375L188.855 51.6307L188.922 51.7152C189.246 51.8234 189.59 51.8604 189.929 51.8236V51.8236Z" fill="#414648"/>
<path d="M180.312 88.942L174.74 81.8281C169.065 83.3942 158.995 92.3886 158.995 92.3886L138.314 101.382C137.624 101.265 136.915 101.333 136.259 101.579C135.604 101.824 135.024 102.239 134.579 102.78C134.134 103.321 133.839 103.97 133.724 104.662C133.609 105.354 133.677 106.064 133.923 106.721C134.169 107.377 134.583 107.958 135.123 108.403C135.664 108.848 136.312 109.143 137.003 109.258C137.693 109.372 138.402 109.303 139.057 109.056C139.712 108.809 140.291 108.393 140.735 107.851L167.826 100.277L180.312 88.942Z" fill="#FFC9B8"/>
<path d="M178.976 90.5683L187.768 80.748L188.256 73.7897C188.347 72.4232 188.054 71.0586 187.412 69.85C186.769 68.6413 185.802 67.6368 184.62 66.95V66.95C183.011 66.0298 181.113 65.7561 179.311 66.1843C177.508 66.6126 175.935 67.7107 174.909 69.2567C171.803 73.948 168.461 80.2907 170.181 83.8668L170.198 83.9031L178.976 90.5683Z" fill="#BFDAA2"/>
<path d="M97.9475 127.479L75.0983 115.753C73.4731 114.919 72.9347 112.707 73.8982 110.822L88.7964 81.6725C89.7599 79.7872 91.8661 78.932 93.4914 79.7661L116.341 91.4922C117.966 92.3263 118.504 94.5387 117.541 96.4239L102.642 125.573C101.679 127.458 99.5728 128.313 97.9475 127.479Z" fill="#CFD1D0"/>
<path d="M94.0438 122.089L78.5198 114.122C76.9976 113.341 76.4933 111.269 77.3957 109.503L89.7728 85.2865C90.6752 83.5209 92.6478 82.7201 94.17 83.5012L112.92 93.1236C114.442 93.9048 114.946 95.9766 114.044 97.7422L107.32 110.898C103.3 118.763 100.824 125.568 94.0438 122.089Z" fill="white"/>
<path d="M101.719 108.864L87.9689 101.808C87.8007 101.688 87.6813 101.511 87.6324 101.31C87.5835 101.109 87.6084 100.897 87.7025 100.713C87.7966 100.529 87.9536 100.385 88.1449 100.307C88.3363 100.23 88.5491 100.223 88.7446 100.29L102.495 107.346C102.663 107.466 102.782 107.643 102.831 107.844C102.88 108.045 102.855 108.257 102.761 108.441C102.667 108.625 102.51 108.769 102.319 108.847C102.127 108.925 101.914 108.931 101.719 108.864V108.864Z" fill="#BFDAA2"/>
<path d="M89.574 106.417L86.4361 104.806C86.268 104.686 86.1486 104.51 86.0997 104.309C86.0508 104.108 86.0756 103.896 86.1698 103.712C86.2639 103.528 86.4209 103.383 86.6122 103.306C86.8036 103.228 87.0164 103.222 87.2119 103.288L90.3498 104.899C90.5179 105.019 90.6373 105.196 90.6862 105.397C90.7351 105.597 90.7103 105.809 90.6162 105.994C90.5221 106.178 90.365 106.322 90.1737 106.399C89.9823 106.477 89.7695 106.483 89.574 106.417V106.417Z" fill="#BFDAA2"/>
<path d="M93.5994 112.268L84.9039 107.805C84.7358 107.685 84.6164 107.508 84.5675 107.307C84.5185 107.106 84.5434 106.895 84.6375 106.71C84.7316 106.526 84.8887 106.382 85.08 106.305C85.2713 106.227 85.4842 106.221 85.6797 106.287L94.3752 110.75C94.5433 110.87 94.6627 111.046 94.7116 111.247C94.7605 111.448 94.7357 111.66 94.6416 111.844C94.5475 112.029 94.3904 112.173 94.1991 112.25C94.0077 112.328 93.7949 112.334 93.5994 112.268V112.268Z" fill="#BFDAA2"/>
<path d="M107.16 98.2179L93.4103 91.1614C93.2421 91.0414 93.1227 90.8648 93.0738 90.6638C93.0249 90.4628 93.0498 90.2509 93.1439 90.0668C93.238 89.8827 93.395 89.7386 93.5864 89.661C93.7777 89.5833 93.9905 89.5772 94.186 89.6437L107.936 96.7002C108.104 96.8202 108.224 96.9969 108.273 97.1979C108.321 97.3988 108.297 97.6107 108.202 97.7948C108.108 97.979 107.951 98.123 107.76 98.2007C107.569 98.2784 107.356 98.2845 107.16 98.2179V98.2179Z" fill="#BFDAA2"/>
<path d="M95.0154 95.7707L91.8775 94.1603C91.7094 94.0402 91.59 93.8636 91.5411 93.6626C91.4922 93.4616 91.5171 93.2497 91.6112 93.0656C91.7053 92.8815 91.8623 92.7374 92.0537 92.6598C92.245 92.5821 92.4578 92.5759 92.6533 92.6425L95.7912 94.2529C95.9593 94.3729 96.0787 94.5495 96.1276 94.7505C96.1765 94.9515 96.1517 95.1634 96.0576 95.3475C95.9635 95.5316 95.8064 95.6757 95.6151 95.7534C95.4238 95.8311 95.2109 95.8372 95.0154 95.7707V95.7707Z" fill="#BFDAA2"/>
<path d="M99.0403 101.621L90.3448 97.1588C90.1767 97.0388 90.0573 96.8621 90.0084 96.6612C89.9595 96.4602 89.9843 96.2483 90.0784 96.0642C90.1725 95.88 90.3296 95.736 90.5209 95.6583C90.7123 95.5806 90.9251 95.5745 91.1206 95.641L99.8161 100.104C99.9842 100.224 100.104 100.4 100.153 100.601C100.201 100.802 100.177 101.014 100.082 101.198C99.9884 101.382 99.8313 101.526 99.64 101.604C99.4487 101.682 99.2358 101.688 99.0403 101.621L99.0403 101.621Z" fill="#BFDAA2"/>
<path d="M79.0135 102.102L73.8516 82.8458L87.6456 80.2292L86.9039 93.4467L105.028 112.147C105.988 112.108 106.938 112.349 107.763 112.841C108.588 113.334 109.252 114.056 109.674 114.92C110.097 115.785 110.259 116.753 110.142 117.708C110.024 118.663 109.632 119.564 109.013 120.299C108.393 121.035 107.574 121.574 106.654 121.851C105.735 122.127 104.754 122.13 103.833 121.859C102.912 121.587 102.089 121.053 101.466 120.321C100.843 119.589 100.445 118.691 100.322 117.736L79.0135 102.102Z" fill="#FFC9B8"/>
<path d="M72.4402 61.2554C67.758 64.9594 73.7677 85.6776 73.7677 85.6776C74.6981 84.6544 75.7793 99.7767 76.9166 99.2618C80.1489 97.7983 86.0732 92.7519 88.3572 93.1632C89.6634 93.3985 88.2949 83.1606 88.2949 83.1606C88.2949 83.1606 88.0432 77.2904 87.5702 69.7441C87.4759 67.6081 86.8439 65.5308 85.7329 63.7054C84.622 61.8801 83.0682 60.3661 81.2162 59.3044C81.2162 59.3044 77.1225 57.5515 72.4402 61.2554Z" fill="#414648"/>
<path d="M150.348 144.843L137.879 138.943C137.612 138.818 137.378 138.634 137.192 138.404C137.007 138.175 136.876 137.906 136.809 137.619C136.741 137.338 136.738 137.045 136.799 136.762C136.861 136.48 136.985 136.215 137.164 135.987C140.775 131.362 143.256 125.953 144.405 120.194C144.492 119.753 144.729 119.355 145.075 119.07C145.422 118.784 145.856 118.628 146.305 118.627C152.664 118.649 157.417 120.976 160.43 125.542C160.589 125.779 160.694 126.049 160.739 126.331C160.783 126.614 160.765 126.903 160.687 127.178C158.942 133.204 156.287 138.928 152.813 144.15C152.555 144.545 152.164 144.832 151.71 144.96C151.257 145.087 150.773 145.046 150.348 144.843Z" fill="#CFD1D0"/>
<path d="M154.015 136.568L144.482 132.057C144.245 131.945 144.062 131.743 143.973 131.496C143.885 131.248 143.898 130.976 144.01 130.738C144.122 130.5 144.323 130.317 144.57 130.228C144.817 130.14 145.089 130.153 145.326 130.265L154.86 134.776C154.977 134.832 155.083 134.91 155.17 135.006C155.257 135.103 155.325 135.215 155.369 135.338C155.413 135.46 155.432 135.59 155.426 135.72C155.419 135.85 155.388 135.978 155.332 136.095C155.277 136.213 155.199 136.319 155.102 136.406C155.006 136.494 154.894 136.561 154.772 136.605C154.649 136.649 154.52 136.668 154.39 136.662C154.26 136.656 154.133 136.624 154.015 136.568H154.015Z" fill="white"/>
<path d="M155.496 133.426L145.963 128.915C145.725 128.802 145.543 128.6 145.454 128.353C145.365 128.105 145.379 127.833 145.491 127.595C145.603 127.358 145.804 127.174 146.051 127.085C146.298 126.997 146.57 127.01 146.807 127.122L156.341 131.633C156.578 131.746 156.761 131.948 156.85 132.195C156.938 132.442 156.925 132.715 156.813 132.953C156.701 133.19 156.499 133.374 156.252 133.462C156.006 133.551 155.734 133.538 155.496 133.426V133.426Z" fill="white"/>
<path d="M142.758 34.7677L141.87 34.8651C137.913 19.2841 130.244 8.48973 119.69 3.64878C106.273 -2.50493 89.6828 1.6274 72.9749 15.2847C56.1821 29.0118 41.316 50.6945 31.1155 76.3399L30.2544 75.945C40.4997 50.1877 55.4421 28.4001 72.329 14.5968C89.3006 0.723635 106.23 -3.439 119.997 2.87584C130.854 7.85551 138.724 18.8836 142.758 34.7677Z" fill="#CFD1D0"/>
<path d="M44.8493 55.06C42.5285 59.9591 40.321 65.0345 38.2881 70.1452C26.59 99.5555 20.6619 129.591 21.1463 157.007L20.2321 156.909C19.7471 129.392 25.6923 99.2523 37.4271 69.7504C39.4658 64.6252 41.6795 59.5354 44.007 54.6226L44.8493 55.06Z" fill="#CFD1D0"/>
<path d="M44.4103 75.2683C42.0895 80.1673 39.882 85.2428 37.8492 90.3535C26.151 119.764 20.2229 149.799 20.7074 177.215L19.7931 177.117C19.3082 149.6 25.2533 119.461 36.9881 89.9586C39.0268 84.8335 41.2405 79.7437 43.568 74.8308L44.4103 75.2683Z" fill="#CFD1D0"/>
<path d="M19.8371 82.6176C20.8477 81.0954 20.2495 78.9164 18.5009 77.7506C16.7523 76.5849 14.5155 76.8739 13.5048 78.3961C12.4941 79.9183 13.0923 82.0974 14.8409 83.2631C16.5895 84.4288 18.8264 84.1398 19.8371 82.6176Z" fill="#A0A3A3"/>
<path d="M235.048 137.59C236.059 136.068 235.461 133.889 233.712 132.723C231.964 131.557 229.727 131.846 228.716 133.368C227.706 134.891 228.304 137.07 230.052 138.235C231.801 139.401 234.038 139.112 235.048 137.59Z" fill="#A0A3A3"/>
</g>
<defs>
<clipPath id="clip0_97_239">
<rect width="283" height="230" fill="white"/>
</clipPath>
</defs>
</svg>
