<svg width="233" height="135" viewBox="0 0 233 135" fill="none" xmlns="http://www.w3.org/2000/svg">
<g clip-path="url(#clip0_97_422)">
<path d="M195.556 14.3303C197.058 24.9822 189.876 22.9757 184.638 22.1522C183.39 21.9555 181.103 23.638 180.314 24.0873C179.871 22.5097 179.845 22.9054 178.677 21.5867C179.307 23.322 177.369 24.0951 178.075 25.1097C176.322 24.9847 175.546 21.2425 177.119 13.0825C177.812 9.49183 179.617 3.9888 187.008 5.20479C195.015 6.52285 195.085 10.9949 195.556 14.3303Z" fill="#414648"/>
<path d="M184.957 22.1636C188.615 22.1636 191.581 19.1904 191.581 15.5229C191.581 11.8553 188.615 8.88208 184.957 8.88208C181.298 8.88208 178.333 11.8553 178.333 15.5229C178.333 19.1904 181.298 22.1636 184.957 22.1636Z" fill="#FFC9B8"/>
<path d="M176.041 13.1532L179.214 13.6393C180.613 12.7606 181.146 11.4569 181.213 9.92429L180.894 13.8967L182.41 14.129C183.4 13.4669 183.843 12.75 183.576 11.9619L183.39 14.2791C187.433 15.7393 191.351 16.8161 194.659 16.0056C194.83 14.8876 194.779 13.7468 194.51 12.6484C194.24 11.5501 193.758 10.5157 193.09 9.60429C192.422 8.69289 191.581 7.92233 190.616 7.33661C189.651 6.75089 188.58 6.36148 187.465 6.19061L185.831 5.9404C184.716 5.76953 183.578 5.82056 182.483 6.09057C181.387 6.36057 180.355 6.84427 179.446 7.51404C178.537 8.18381 177.768 9.02653 177.184 9.9941C176.6 10.9617 176.211 12.0351 176.041 13.1532V13.1532Z" fill="#414648"/>
<path d="M165.369 56.8636H13.3488C12.4079 56.8625 11.5058 56.4873 10.8405 55.8203C10.1752 55.1533 9.8009 54.249 9.7998 53.3057V21.744C9.8009 20.8007 10.1752 19.8963 10.8405 19.2293C11.5058 18.5623 12.4079 18.1871 13.3488 18.186H165.369C166.31 18.1871 167.212 18.5623 167.878 19.2293C168.543 19.8963 168.917 20.8007 168.918 21.744V53.3057C168.917 54.2489 168.543 55.1533 167.878 55.8203C167.212 56.4873 166.31 56.8625 165.369 56.8636Z" fill="#CFD1D0"/>
<path d="M155.109 54.4635H15.7429C14.8019 54.4624 13.8999 54.0872 13.2345 53.4202C12.5692 52.7532 12.1949 51.8489 12.1938 50.9056V24.1456C12.1949 23.2023 12.5692 22.2979 13.2345 21.6309C13.8999 20.9639 14.8019 20.5887 15.7429 20.5876H162.975C163.916 20.5887 164.818 20.9639 165.484 21.6309C166.149 22.2979 166.523 23.2023 166.524 24.1456V43.0193C166.521 46.0535 165.317 48.9624 163.177 51.1078C161.037 53.2533 158.135 54.4601 155.109 54.4635V54.4635Z" fill="white"/>
<path d="M136.729 32.7192H94.2859C94.0431 32.7192 93.8103 32.6225 93.6387 32.4505C93.467 32.2784 93.3706 32.045 93.3706 31.8016C93.3706 31.5583 93.467 31.3249 93.6387 31.1528C93.8103 30.9807 94.0431 30.884 94.2859 30.884H136.729C136.972 30.884 137.205 30.9807 137.377 31.1528C137.548 31.3249 137.645 31.5583 137.645 31.8016C137.645 32.045 137.548 32.2784 137.377 32.4505C137.205 32.6225 136.972 32.7192 136.729 32.7192V32.7192Z" fill="#BFDAA2"/>
<path d="M147.472 38.1658H83.5427C83.3 38.1658 83.0672 38.0691 82.8955 37.897C82.7239 37.7249 82.6274 37.4915 82.6274 37.2482C82.6274 37.0048 82.7239 36.7714 82.8955 36.5993C83.0672 36.4272 83.3 36.3306 83.5427 36.3306H147.472C147.715 36.3306 147.947 36.4272 148.119 36.5993C148.291 36.7714 148.387 37.0048 148.387 37.2482C148.387 37.4915 148.291 37.7249 148.119 37.897C147.947 38.0691 147.715 38.1658 147.472 38.1658V38.1658Z" fill="#CFD1D0"/>
<path d="M147.472 44.1672H83.5427C83.3 44.1672 83.0672 44.0705 82.8955 43.8985C82.7239 43.7264 82.6274 43.493 82.6274 43.2496C82.6274 43.0063 82.7239 42.7729 82.8955 42.6008C83.0672 42.4287 83.3 42.332 83.5427 42.332H147.472C147.715 42.332 147.947 42.4287 148.119 42.6008C148.291 42.7729 148.387 43.0063 148.387 43.2496C148.387 43.493 148.291 43.7264 148.119 43.8985C147.947 44.0705 147.715 44.1672 147.472 44.1672V44.1672Z" fill="#CFD1D0"/>
<path d="M93.7218 23.4494H93.2002V3.30737H130.925V3.83025H93.7218V23.4494Z" fill="#414648"/>
<path d="M146.877 0H133.056C132.157 0 131.294 0.358079 130.658 0.99546C130.023 1.63284 129.666 2.49732 129.666 3.39871C129.666 4.3001 130.023 5.16458 130.658 5.80196C131.294 6.43934 132.157 6.79742 133.056 6.79742H146.877C147.776 6.79742 148.639 6.43934 149.275 5.80196C149.91 5.16458 150.268 4.3001 150.268 3.39871C150.268 2.49732 149.91 1.63284 149.275 0.99546C148.639 0.358079 147.776 0 146.877 0V0Z" fill="#BFDAA2"/>
<path d="M93.1583 26.8708C94.8788 26.8708 96.2736 25.4725 96.2736 23.7476C96.2736 22.0228 94.8788 20.6245 93.1583 20.6245C91.4377 20.6245 90.043 22.0228 90.043 23.7476C90.043 25.4725 91.4377 26.8708 93.1583 26.8708Z" fill="#CFD1D0"/>
<path d="M206.015 129.462H203.137L201.767 118.332H206.015V129.462Z" fill="#FFC9B8"/>
<path d="M207.534 134.462H205.47L205.101 132.508L204.158 134.462H198.683C198.42 134.462 198.165 134.378 197.954 134.222C197.742 134.066 197.586 133.846 197.508 133.595C197.43 133.344 197.434 133.074 197.519 132.825C197.605 132.577 197.768 132.362 197.984 132.213L202.356 129.185V127.21L206.954 127.485L207.534 134.462Z" fill="#414648"/>
<path d="M186.195 129.462H183.317L181.947 118.332H186.195V129.462Z" fill="#FFC9B8"/>
<path d="M187.714 134.462H185.65L185.282 132.508L184.338 134.462H178.863C178.601 134.462 178.345 134.378 178.134 134.222C177.922 134.066 177.766 133.846 177.688 133.595C177.61 133.344 177.614 133.074 177.7 132.825C177.785 132.577 177.948 132.362 178.164 132.213L182.536 129.185V127.21L187.135 127.485L187.714 134.462Z" fill="#414648"/>
<path d="M213.444 64.7844C213.646 64.4992 213.784 64.173 213.847 63.8288C213.91 63.4845 213.897 63.1306 213.809 62.7919C213.72 62.4533 213.559 62.1381 213.336 61.8687C213.114 61.5992 212.834 61.382 212.519 61.2324L205.502 40.6433L201.321 42.8432L209.245 62.519C209.029 63.0672 209.022 63.6756 209.224 64.229C209.425 64.7824 209.823 65.2423 210.341 65.5215C210.858 65.8008 211.46 65.88 212.032 65.7441C212.604 65.6083 213.106 65.2668 213.444 64.7844H213.444Z" fill="#FFC9B8"/>
<path d="M169.555 73.9757C169.89 73.8756 170.198 73.7032 170.459 73.4706C170.72 73.238 170.927 72.9509 171.065 72.6295C171.203 72.3081 171.27 71.9603 171.259 71.6104C171.249 71.2606 171.162 70.9172 171.005 70.6046L178.105 50.0439L173.459 49.2004L167.634 69.6001C167.128 69.8994 166.749 70.3745 166.568 70.9353C166.388 71.4962 166.419 72.1039 166.656 72.6433C166.893 73.1826 167.319 73.6161 167.853 73.8617C168.387 74.1073 168.993 74.1478 169.555 73.9757V73.9757Z" fill="#FFC9B8"/>
<path d="M180.751 61.6997C180.751 61.6997 199.265 56.961 198.485 58.5624C198.485 58.5624 204.201 56.7888 204.995 68.6132L204.743 92.2881L205.777 110.771C205.777 110.771 205.147 112.275 205.853 112.144C206.56 112.012 205.969 114.219 205.969 114.219C205.969 114.219 205.374 116.569 206.097 116.513C206.82 116.457 206.299 120.117 206.299 120.117H201.605L192.611 79.594L188.575 94.3796C188.575 94.3796 188.797 95.9642 188.42 96.0142C188.044 96.0643 188.308 97.2033 188.308 97.2033L188.167 98.7001L186.218 119.332L181.785 119.594C181.785 119.594 181.75 119.141 181.785 118.025C181.811 117.196 182.065 115.872 181.395 114.78C180.65 113.568 180.217 112.165 181.085 110.62C181.685 109.55 180.905 108.078 180.812 106.686C180.226 97.9041 179.596 86.1846 179.615 76.6064C179.616 76.2242 179.02 75.2687 179.62 75.4703C180.22 75.672 179.628 74.6083 179.634 74.1852C179.646 73.4009 180.453 72.0333 179.685 71.8919C178.917 71.7505 179.709 71.14 179.724 70.7731C179.875 66.8999 180.195 63.7108 180.751 61.6997Z" fill="#414648"/>
<path d="M189.097 23.0066L181.534 23.7909L180.801 27.3258L173.623 31.7212L176.107 38.4544C176.107 38.4544 174.089 45.2727 179.792 48.0074L181.795 53.8564L181.089 58.0117L180.893 59.1651C181.394 60.0964 181.482 60.781 180.601 60.8865L180.317 62.5598C179.055 63.2923 179.098 64.5943 179.708 66.1441L205.004 68.7584C206.045 65.3522 200.43 54.1051 197.442 53.0721L197.831 36.2689L198.476 25.2142L189.87 25.9985L189.097 23.0066Z" fill="#414648"/>
<path d="M196.507 25.7106C196.858 25.456 197.262 25.2843 197.689 25.2083C198.116 25.1323 198.554 25.1539 198.972 25.2716C199.389 25.3892 199.775 25.5999 200.099 25.8878C200.424 26.1757 200.68 26.5335 200.848 26.9344L205.348 37.7015C206.199 38.01 207.597 40.6349 207.091 41.3075C207.101 42.0186 206.855 41.5021 207.543 42.4888C208.325 42.5444 208.53 42.8746 207.989 43.5578L207.873 44.4448L208.192 44.505C209.045 44.5356 209.089 44.8542 208.557 45.3779C208.733 45.4844 208.869 45.6475 208.941 45.8408C209.013 46.0342 209.018 46.2464 208.955 46.443L208.385 48.221L203.952 50.3125L196.659 36.6016L195.482 29.0212C195.272 28.4326 195.258 27.7915 195.443 27.1945C195.628 26.5974 196.001 26.0767 196.507 25.7106V25.7106Z" fill="#414648"/>
<path d="M176.295 32.0172C175.897 31.6715 175.404 31.4531 174.881 31.3902C174.358 31.3273 173.828 31.4227 173.359 31.6642C172.891 31.9057 172.505 32.2822 172.251 32.7454C171.998 33.2085 171.888 33.7371 171.937 34.2632C172.288 38.0671 172.661 42.1147 172.661 42.1147L172.049 52.6563L177.622 53.8565L177.837 52.3449L178.404 52.0264L178.007 51.152C178.107 51.1618 178.209 51.1466 178.302 51.1076C178.395 51.0686 178.477 51.0071 178.54 50.9285C178.604 50.85 178.647 50.7568 178.666 50.6575C178.685 50.5581 178.679 50.4556 178.649 50.3591L178.285 49.2005C178.342 49.247 178.412 49.2737 178.486 49.2766C178.56 49.2795 178.632 49.2584 178.693 49.2165C178.753 49.1746 178.799 49.1142 178.822 49.0443C178.845 48.9743 178.846 48.8987 178.823 48.8286L178.484 47.8004L179.963 37.4088L176.771 32.5609C176.638 32.3587 176.478 32.1757 176.295 32.0172V32.0172Z" fill="#414648"/>
<path d="M112.498 51.845H111.977V71.987H149.701V71.4642H112.498V51.845Z" fill="#414648"/>
<path d="M169.044 71.8958C169.043 70.9947 168.686 70.1307 168.05 69.4935C167.414 68.8563 166.553 68.4979 165.654 68.4971H151.832C150.933 68.4971 150.071 68.8551 149.435 69.4925C148.799 70.1299 148.442 70.9944 148.442 71.8958C148.442 72.7972 148.799 73.6616 149.435 74.299C150.071 74.9364 150.933 75.2945 151.832 75.2945H165.654C166.553 75.2936 167.414 74.9353 168.05 74.2981C168.686 73.6609 169.043 72.7969 169.044 71.8958V71.8958Z" fill="#BFDAA2"/>
<path d="M112.456 53.799C114.177 53.799 115.571 52.4007 115.571 50.6759C115.571 48.951 114.177 47.5527 112.456 47.5527C110.736 47.5527 109.341 48.951 109.341 50.6759C109.341 52.4007 110.736 53.799 112.456 53.799Z" fill="#CFD1D0"/>
<path d="M56.546 52.1064H57.0676V72.2485H19.3433V71.7256H56.546V52.1064Z" fill="#414648"/>
<path d="M3.3902 75.556H17.2118C18.1109 75.556 18.9732 75.1979 19.609 74.5605C20.2448 73.9231 20.602 73.0586 20.602 72.1573C20.602 71.2559 20.2448 70.3914 19.609 69.754C18.9732 69.1166 18.1109 68.7585 17.2118 68.7585H3.3902C2.49106 68.7585 1.62875 69.1166 0.992968 69.754C0.357182 70.3914 0 71.2559 0 72.1573C0 73.0586 0.357182 73.9231 0.992968 74.5605C1.62875 75.1979 2.49106 75.556 3.3902 75.556Z" fill="#BFDAA2"/>
<path d="M57.17 53.6242C58.8905 53.6242 60.2853 52.2259 60.2853 50.5011C60.2853 48.7762 58.8905 47.3779 57.17 47.3779C55.4495 47.3779 54.0547 48.7762 54.0547 50.5011C54.0547 52.2259 55.4495 53.6242 57.17 53.6242Z" fill="#CFD1D0"/>
<path d="M224.005 134.732H215.35L215.313 134.664C215.202 134.463 215.095 134.25 214.995 134.031C214.104 132.118 213.727 129.929 213.395 127.999L213.144 126.543C213.114 126.367 213.137 126.186 213.21 126.023C213.283 125.86 213.403 125.722 213.555 125.628C213.706 125.533 213.882 125.486 214.061 125.493C214.239 125.499 214.411 125.559 214.555 125.664C215.871 126.624 217.186 127.582 218.503 128.54C219.001 128.904 219.57 129.324 220.115 129.779C220.168 129.523 220.223 129.266 220.278 129.013C220.316 128.838 220.405 128.678 220.534 128.555C220.663 128.431 220.826 128.348 221.001 128.318C221.177 128.287 221.358 128.31 221.521 128.383C221.684 128.457 221.822 128.577 221.916 128.729L222.928 130.36C223.667 131.551 224.319 132.725 224.186 133.99C224.187 134.006 224.185 134.021 224.183 134.036C224.156 134.244 224.107 134.449 224.036 134.646L224.005 134.732Z" fill="#F0F0F0"/>
<path d="M232.691 134.92L150.451 135C150.368 135 150.29 134.967 150.232 134.908C150.174 134.85 150.142 134.771 150.142 134.689C150.142 134.606 150.174 134.528 150.232 134.469C150.29 134.411 150.368 134.378 150.451 134.377L232.691 134.297C232.773 134.298 232.852 134.331 232.909 134.389C232.967 134.447 233 134.526 233 134.608C233 134.691 232.967 134.77 232.909 134.828C232.852 134.886 232.773 134.919 232.691 134.92V134.92Z" fill="#CACACA"/>
<path d="M27.1495 46.8881C32.3345 46.8881 36.5377 42.6743 36.5377 37.4763C36.5377 32.2783 32.3345 28.0645 27.1495 28.0645C21.9645 28.0645 17.7612 32.2783 17.7612 37.4763C17.7612 42.6743 21.9645 46.8881 27.1495 46.8881Z" fill="#CFD1D0"/>
<path d="M62.7206 32.6699H56.5261C56.2834 32.6699 56.0506 32.5732 55.8789 32.4011C55.7073 32.2291 55.6108 31.9957 55.6108 31.7523C55.6108 31.509 55.7073 31.2756 55.8789 31.1035C56.0506 30.9314 56.2834 30.8347 56.5261 30.8347H62.7206C62.9634 30.8347 63.1962 30.9314 63.3678 31.1035C63.5395 31.2756 63.6359 31.509 63.6359 31.7523C63.6359 31.9957 63.5395 32.2291 63.3678 32.4011C63.1962 32.5732 62.9634 32.6699 62.7206 32.6699Z" fill="#BFDAA2"/>
<path d="M73.4631 38.1164H45.783C45.5402 38.1164 45.3074 38.0198 45.1358 37.8477C44.9641 37.6756 44.8677 37.4422 44.8677 37.1988C44.8677 36.9555 44.9641 36.7221 45.1358 36.55C45.3074 36.3779 45.5402 36.2813 45.783 36.2812H73.4631C73.7059 36.2812 73.9387 36.3779 74.1103 36.55C74.282 36.7221 74.3784 36.9555 74.3784 37.1988C74.3784 37.4422 74.282 37.6756 74.1103 37.8477C73.9387 38.0198 73.7059 38.1164 73.4631 38.1164V38.1164Z" fill="#CFD1D0"/>
<path d="M73.4631 44.1179H45.783C45.5402 44.1179 45.3074 44.0212 45.1358 43.8491C44.9641 43.6771 44.8677 43.4437 44.8677 43.2003C44.8677 42.9569 44.9641 42.7236 45.1358 42.5515C45.3074 42.3794 45.5402 42.2827 45.783 42.2827H73.4631C73.7059 42.2827 73.9387 42.3794 74.1103 42.5515C74.282 42.7236 74.3784 42.9569 74.3784 43.2003C74.3784 43.4437 74.282 43.6771 74.1103 43.8491C73.9387 44.0212 73.7059 44.1179 73.4631 44.1179V44.1179Z" fill="#CFD1D0"/>
</g>
<defs>
<clipPath id="clip0_97_422">
<rect width="233" height="135" fill="white"/>
</clipPath>
</defs>
</svg>
