<svg width="254" height="200" viewBox="0 0 254 200" fill="none" xmlns="http://www.w3.org/2000/svg">
<g clip-path="url(#clip0_97_296)">
<path d="M66.6212 90.2625C66.0621 90.2625 65.6074 90.7172 65.6074 91.2764V99.3881C65.6074 99.9473 66.0621 100.402 66.6212 100.402C67.1803 100.402 67.635 99.9473 67.635 99.3881V91.2764C67.635 90.7172 67.1803 90.2625 66.6212 90.2625Z" fill="#414648"/>
<path d="M181.937 0H90.7429C80.4015 0 72.0181 8.38471 72.0181 18.7278V179.9C72.0181 190.243 80.4015 198.628 90.7429 198.628H181.937C192.279 198.628 200.662 190.243 200.662 179.9V18.7278C200.662 8.38471 192.279 0 181.937 0V0Z" fill="white"/>
<path d="M181.937 200H90.743C80.1736 200 71.5747 191.4 71.5747 180.829V19.6571C71.5747 9.08611 80.1736 0.48584 90.743 0.48584H181.937C192.507 0.48584 201.105 9.08611 201.105 19.6571V180.829C201.105 191.4 192.507 200 181.937 200ZM90.743 1.37279C80.6625 1.37279 72.4615 9.57506 72.4615 19.6571V180.829C72.4615 190.911 80.6625 199.113 90.743 199.113H181.937C192.018 199.113 200.219 190.911 200.219 180.829V19.6571C200.219 9.57505 192.018 1.37279 181.937 1.37279H90.743Z" fill="#414648"/>
<path d="M188.543 39.2722H151.887C150.333 39.2722 149.068 38.0071 149.068 36.4521C149.068 34.8972 150.333 33.6321 151.887 33.6321H188.543C190.097 33.6321 191.362 34.8972 191.362 36.4521C191.362 38.0071 190.097 39.2722 188.543 39.2722Z" fill="#CFD1D0"/>
<path d="M154.155 61.4492H118.525C117.626 61.4492 116.896 60.7182 116.896 59.8198C116.896 58.9214 117.626 58.1907 118.525 58.1907H154.155C155.054 58.1907 155.784 58.9214 155.784 59.8198C155.784 60.7182 155.054 61.4492 154.155 61.4492V61.4492Z" fill="#BFDAA2"/>
<path d="M103.837 6.98608H83.4115C83.3584 6.98608 83.3154 7.0291 83.3154 7.08216V9.53367C83.3154 9.58673 83.3584 9.62975 83.4115 9.62975H103.837C103.89 9.62975 103.933 9.58673 103.933 9.53367V7.08216C103.933 7.0291 103.89 6.98608 103.837 6.98608Z" fill="#CFD1D0"/>
<path d="M172.314 9.62976C173.482 9.62976 174.429 8.68287 174.429 7.51483C174.429 6.34679 173.482 5.3999 172.314 5.3999C171.146 5.3999 170.2 6.34679 170.2 7.51483C170.2 8.68287 171.146 9.62976 172.314 9.62976Z" fill="#CFD1D0"/>
<path d="M178.13 9.62976C179.298 9.62976 180.244 8.68287 180.244 7.51483C180.244 6.34679 179.298 5.3999 178.13 5.3999C176.962 5.3999 176.015 6.34679 176.015 7.51483C176.015 8.68287 176.962 9.62976 178.13 9.62976Z" fill="#CFD1D0"/>
<path d="M183.945 9.62976C185.113 9.62976 186.059 8.68287 186.059 7.51483C186.059 6.34679 185.113 5.3999 183.945 5.3999C182.777 5.3999 181.83 6.34679 181.83 7.51483C181.83 8.68287 182.777 9.62976 183.945 9.62976Z" fill="#CFD1D0"/>
<path d="M90.521 70.171C90.521 70.4637 90.756 70.6988 91.0487 70.6988H181.631C181.924 70.6988 182.159 70.4638 182.159 70.171C182.159 69.8784 181.924 69.6433 181.631 69.6433H91.0487C90.756 69.6433 90.521 69.8784 90.521 70.171Z" fill="#414648"/>
<path d="M162.362 144.811C162.362 145.103 162.597 145.338 162.889 145.338H253.472C253.765 145.338 254 145.103 254 144.811C254 144.518 253.765 144.283 253.472 144.283H162.889C162.597 144.283 162.362 144.518 162.362 144.811Z" fill="#414648"/>
<path d="M172.945 111.649H118.584C117.686 111.649 116.955 110.918 116.955 110.02C116.955 109.121 117.686 108.391 118.584 108.391H172.945C173.843 108.391 174.573 109.121 174.573 110.02C174.573 110.918 173.843 111.649 172.945 111.649V111.649Z" fill="#BFDAA2"/>
<path d="M102.097 113.81C104.301 113.81 106.087 112.023 106.087 109.818C106.087 107.614 104.301 105.827 102.097 105.827C99.8926 105.827 98.106 107.614 98.106 109.818C98.106 112.023 99.8926 113.81 102.097 113.81Z" fill="#BFDAA2"/>
<path d="M101.653 116.471V115.584C104.954 115.584 107.639 112.898 107.639 109.597C107.639 106.296 104.954 103.61 101.653 103.61V102.723C105.443 102.723 108.526 105.806 108.526 109.597C108.526 113.387 105.443 116.471 101.653 116.471V116.471Z" fill="#414648"/>
<path d="M54.1226 93.7223C55.7504 92.0655 57.9247 91.5625 58.9787 92.5988C60.0328 93.6351 59.5675 95.8179 57.9389 97.4751C57.2974 98.146 56.5046 98.6535 55.6268 98.9551L48.6411 105.888L45.458 102.54L52.6827 96.0608C52.969 95.1775 53.4628 94.3756 54.1226 93.7223H54.1226Z" fill="#FFC9B8"/>
<path d="M31.7812 87.9994L39.1057 104.251L50.8017 97.9187L54.9874 100.141C54.9874 100.141 45.4262 116.128 38.8797 114.308C32.3331 112.488 20.7081 95.9861 22.8026 90.8931C24.8972 85.8002 31.7812 87.9994 31.7812 87.9994V87.9994Z" fill="#CFD1D0"/>
<path d="M0 199.456C0 199.66 0.164129 199.825 0.368514 199.825H226.201C226.405 199.825 226.569 199.66 226.569 199.456C226.569 199.252 226.405 199.087 226.201 199.087H0.368514C0.164129 199.087 0 199.252 0 199.456Z" fill="#414648"/>
<path d="M67.6059 120.005C78.705 120.005 87.7025 111.196 87.7025 100.329C87.7025 89.4622 78.705 80.6528 67.6059 80.6528C56.5068 80.6528 47.5093 89.4622 47.5093 100.329C47.5093 111.196 56.5068 120.005 67.6059 120.005Z" fill="#BFDAA2"/>
<path d="M28.5694 196.308L33.9101 196.307L36.4507 175.704L28.5684 175.705L28.5694 196.308Z" fill="#FFC9B8"/>
<path d="M46.8673 196.187C47.0336 196.467 47.1214 197.371 47.1214 197.697C47.1214 198.698 46.3098 199.51 45.3087 199.51H28.7692C28.0863 199.51 27.5326 198.956 27.5326 198.273V197.584C27.5326 197.584 26.7145 195.514 28.399 192.963C28.399 192.963 30.4926 194.961 33.621 191.832L34.5435 190.16L41.2215 195.045L44.9229 195.501C45.7328 195.6 46.4507 195.485 46.8673 196.187H46.8673V196.187Z" fill="#414648"/>
<path d="M32.6111 89.0423L32.7191 81.8378L28.277 79.0684L23.4468 84.9777L32.6111 89.0423Z" fill="#FFC9B8"/>
<path opacity="0.1" d="M32.6109 89.0423L32.8984 82.0174L28.2769 79.0684L29.847 87.762L32.6109 89.0423Z" fill="#414648"/>
<path d="M43.399 136.682L36.0398 186.768H26.8066L28.0343 158.178L28.6805 143.145L26.8066 135.989C26.8066 135.989 25.9522 134.398 25.2324 132.47C24.4211 130.294 23.7803 127.686 24.7317 126.449C25.0817 125.993 25.9917 125.656 27.2284 125.404C27.9841 125.25 28.8636 125.13 29.8131 125.036C35.2733 124.496 43.0401 124.833 43.0401 124.833L43.2375 131.35L43.347 134.989L43.399 136.682L43.399 136.682Z" fill="#414648"/>
<path d="M19.1616 193.858L24.4456 194.635L29.9556 174.62L22.157 173.474L19.1616 193.858Z" fill="#FFC9B8"/>
<path d="M37.2827 196.4C37.4065 196.702 37.3618 197.609 37.3144 197.931C37.1688 198.922 36.2479 199.607 35.2574 199.461L18.8938 197.055C18.2181 196.956 17.7509 196.327 17.8502 195.651L17.9504 194.97C17.9504 194.97 17.4419 192.803 19.4796 190.524C19.4796 190.524 21.2604 192.805 24.8106 190.165L25.9664 188.645L31.8629 194.449L35.4588 195.439C36.2455 195.655 36.9725 195.646 37.2826 196.4H37.2827L37.2827 196.4Z" fill="#414648"/>
<path d="M43.5149 128.329L42.5055 137.023L37.0008 155.344L27.9391 185.507L18.8052 184.164L27.0028 141.277L26.1911 133.923C26.1911 133.923 25.9268 133.192 25.6238 132.122C25.0223 130.005 24.2679 126.557 25.0979 124.798C25.2099 124.559 25.3506 124.352 25.5246 124.184C25.8511 123.867 26.5145 123.675 27.4033 123.573C31.1186 123.153 38.7698 124.354 42.1745 124.944L43.5149 128.329V128.329Z" fill="#414648"/>
<path d="M24.4621 83.4536L33.4368 87.7621C33.4368 87.7621 42.95 115.947 42.95 117.383C42.95 118.819 45.6424 119.717 44.0269 121.333C42.4115 122.948 47.0337 124.317 44.5431 125.607C42.0525 126.898 26.5157 133.957 24.788 133.321C20.0232 131.565 24.99 125.113 24.99 125.113C24.99 125.113 21.4107 122.23 21.9492 120.794C22.4876 119.358 18.7183 91.8911 18.7183 91.8911L24.4621 83.4536H24.4621Z" fill="#CFD1D0"/>
<path d="M51.8092 108.289C54.0365 107.631 56.1815 108.247 56.6 109.664C57.0186 111.082 55.5523 112.765 53.3241 113.423C52.4376 113.698 51.4981 113.757 50.5843 113.594L41.1118 116.263L39.9541 111.791L49.4152 109.634C50.0943 109.001 50.9152 108.54 51.8092 108.289H51.8092Z" fill="#FFC9B8"/>
<path d="M35.0546 92.4382L33.5699 110.202L46.8687 110.345L49.4497 114.32C49.4497 114.32 33.3308 123.655 28.4908 118.885C23.6507 114.115 21.4972 94.0442 25.8004 90.6086C30.1036 87.173 35.0546 92.4382 35.0546 92.4382V92.4382Z" fill="#CFD1D0"/>
<path d="M32.424 83.9279C36.67 83.9279 40.1121 80.4853 40.1121 76.2386C40.1121 71.9919 36.67 68.5493 32.424 68.5493C28.1779 68.5493 24.7358 71.9919 24.7358 76.2386C24.7358 80.4853 28.1779 83.9279 32.424 83.9279Z" fill="#FFC9B8"/>
<path d="M28.2774 76.269C28.2774 76.269 29.4881 74.271 30.154 73.2417C30.8199 72.2124 30.8199 70.7045 30.8199 70.7045C30.8199 70.7045 36.9946 70.5777 39.0528 72.3335C41.1111 74.0893 42.5639 67.6109 40.5662 65.3707C40.5662 65.3707 39.7187 66.3395 39.9003 66.7027L40.082 67.066C40.082 67.066 39.0528 62.9489 36.0866 62.1618C36.0866 62.1618 34.4364 63.0142 34.8983 63.4962C35.3601 63.9782 31.3647 60.5876 30.154 62.5856C30.154 62.5856 27.1877 62.5251 27.5509 63.6149L27.3693 64.2809C27.3693 64.2809 24.8268 63.4938 24.6452 65.3707C24.6452 65.3707 25.5532 65.3707 26.0375 65.8551C26.5218 66.3395 24.282 67.732 24.282 67.732C24.282 67.732 21.6789 74.8764 25.19 77.7826C25.19 77.7826 25.2203 74.3012 26.6126 75.1489C28.0049 75.9965 28.2774 76.269 28.2774 76.269V76.269Z" fill="#414648"/>
<path d="M35.5934 80.8101L35.3174 81.5366L37.3877 81.5972L37.5257 80.9311L35.5934 80.8101Z" fill="#414648"/>
<path d="M37.6639 78.2065C37.6639 78.2065 34.5584 77.3588 32.6951 79.9018L32.281 80.3861C32.281 80.3861 28.3473 75.9663 28.6924 74.3315L27.8643 74.3921L27.0361 78.6303C27.0361 78.6303 29.6586 83.1712 33.3162 83.3529C33.3162 83.3529 36.8358 84.2005 37.5949 82.7474C38.354 81.2943 39.661 79.1516 39.661 79.1516L37.6639 78.2065H37.6639ZM37.099 82.263H35.0415C34.5584 82.263 33.3162 80.5072 33.3162 80.5072C34.0063 79.4174 36.0766 79.3568 36.0766 79.3568H38.3249L38.492 80.0228L37.099 82.263H37.099Z" fill="#414648"/>
<path d="M187.53 196.893L184.154 196.163L185.362 182.794L190.344 183.871L187.53 196.893Z" fill="#FFC9B8"/>
<path d="M175.981 194.317C175.837 194.472 175.659 195.031 175.614 195.237C175.477 195.87 175.879 196.494 176.512 196.63L186.966 198.89C187.398 198.983 187.824 198.708 187.917 198.277L188.011 197.841C188.011 197.841 188.811 196.645 188.094 194.802C188.094 194.802 186.498 195.779 184.948 193.374L184.593 192.191L179.705 194.367L177.303 194.149C176.778 194.102 176.34 193.931 175.981 194.317L175.981 194.317V194.317Z" fill="#414648"/>
<path d="M181.492 195.87L178.676 193.871L185.046 182.055L189.202 185.006L181.492 195.87Z" fill="#FFC9B8"/>
<path d="M171.888 188.957C171.695 189.043 171.311 189.487 171.189 189.658C170.814 190.186 170.939 190.918 171.467 191.293L180.189 197.484C180.549 197.739 181.048 197.655 181.303 197.294L181.561 196.931C181.561 196.931 182.767 196.146 182.834 194.17C182.834 194.17 180.982 194.44 180.503 191.619L180.642 190.392L175.293 190.468L173.17 189.323C172.706 189.073 172.37 188.743 171.888 188.957L171.888 188.957V188.957Z" fill="#414648"/>
<path d="M222.063 129.77C222.063 129.77 227.314 136.911 216.811 144.94L195.367 138.087L203.025 122.11L209.809 118.39L222.063 129.77V129.77Z" fill="#414648"/>
<path d="M195.367 138.086L187.051 154.281L181.8 187.985L188.364 188.422L194.929 156.47L206.526 139.181L198.43 135.46" fill="#414648"/>
<path d="M216.811 139.853V144.94L201.931 161.285C201.931 161.285 201.931 173.54 196.242 179.231L189.678 189.298L183.988 186.234L192.303 156.908L207.183 137.649L216.811 139.853V139.853Z" fill="#414648"/>
<path d="M206.237 89.42L208.494 100.108L217.096 98.0057C217.096 98.0057 212.844 89.1599 213.69 85.6555L206.237 89.42Z" fill="#FFC9B8"/>
<path opacity="0.1" d="M206.237 89.42L208.494 100.108L217.096 98.0057C217.096 98.0057 212.844 89.1599 213.69 85.6555L206.237 89.42Z" fill="#414648"/>
<path d="M214.404 91.0332L207.839 94.0971C207.839 94.0971 204.462 96.1616 204.4 97.5367C204.338 98.9119 204.776 105.477 204.776 105.477C204.776 105.477 202.15 108.104 203.901 113.356L203.025 122.11L222.719 132.615L220.968 114.232L221.844 97.1611L214.404 91.0332V91.0332Z" fill="#CFD1D0"/>
<path d="M220.297 140.845C219.528 142.609 217.995 143.642 216.873 143.152C215.751 142.663 215.464 140.836 216.233 139.072C216.531 138.363 216.994 137.736 217.584 137.243L220.935 129.811L224.388 131.458L220.718 138.609C220.758 139.378 220.614 140.144 220.297 140.845V140.845Z" fill="#FFC9B8"/>
<path d="M216.811 98.2554C216.811 98.2554 221.625 95.1915 223.376 98.6931C225.126 102.195 229.065 120.141 229.065 120.141L223.376 137.211L218.124 135.023L222.719 116.651L216.811 98.2554V98.2554Z" fill="#CFD1D0"/>
<path d="M192.138 138.09C190.774 139.446 188.968 139.842 188.105 138.973C187.242 138.105 187.649 136.301 189.014 134.944C189.552 134.395 190.213 133.982 190.943 133.741L196.796 128.066L199.4 130.87L193.353 136.167C193.108 136.895 192.691 137.555 192.138 138.09V138.09Z" fill="#FFC9B8"/>
<path d="M204.586 97.2113C204.586 97.2113 212.979 96.868 213.316 100.768C213.654 104.669 207.916 122.072 207.916 122.072L196.339 135.846L192.263 131.876L203.302 116.49L204.586 97.2113V97.2113Z" fill="#CFD1D0"/>
<path d="M228.818 143.434L175.152 134.777C174.265 134.634 173.66 133.796 173.803 132.909C173.946 132.022 174.784 131.417 175.67 131.56L229.337 140.217C230.224 140.36 230.829 141.198 230.686 142.085C230.543 142.972 229.705 143.577 228.818 143.434V143.434Z" fill="#BFDAA2"/>
<path d="M159.166 134.335C161.37 134.335 163.157 132.548 163.157 130.344C163.157 128.139 161.37 126.353 159.166 126.353C156.962 126.353 155.175 128.139 155.175 130.344C155.175 132.548 156.962 134.335 159.166 134.335Z" fill="#BFDAA2"/>
<path d="M157.669 136.84L157.81 135.965C161.069 136.49 164.147 134.267 164.673 131.007C165.198 127.748 162.975 124.669 159.716 124.144L159.858 123.268C163.599 123.872 166.152 127.407 165.548 131.149C164.945 134.891 161.41 137.444 157.669 136.84V136.84Z" fill="#414648"/>
<path d="M207.098 91.6919C210.748 91.6919 213.707 88.7323 213.707 85.0814C213.707 81.4306 210.748 78.4709 207.098 78.4709C203.447 78.4709 200.488 81.4306 200.488 85.0814C200.488 88.7323 203.447 91.6919 207.098 91.6919Z" fill="#FFC9B8"/>
<path d="M211.004 85.0814C211.004 85.0814 206.878 81.3355 204.234 82.6575C201.59 83.9796 200.268 84.861 200.268 84.861C200.268 84.861 198.065 81.5558 201.37 78.6913C201.37 78.6913 194.643 75.7521 199.549 71.1621C204.454 66.5721 208.86 68.3349 208.86 68.3349C208.86 68.3349 214.809 70.9791 210.623 76.2674C210.623 76.2674 216.721 80.1355 213.562 86.4646C213.562 86.4646 213.267 82.4372 212.386 83.5389C211.504 84.6407 211.004 85.0814 211.004 85.0814V85.0814Z" fill="#414648"/>
<path d="M74.5104 107.737C71.9837 101.524 69.457 95.3111 66.9304 89.0979C66.5814 88.2398 65.4882 88.2093 65.1476 89.0979C62.6511 95.6119 61.0197 102.409 60.2354 109.339C60.1018 110.52 61.9516 110.51 62.0841 109.339C62.3911 106.627 62.8467 103.936 63.4317 101.273C65.5137 101.382 67.6128 101.148 69.622 100.592C70.6573 103.138 71.6925 105.683 72.7277 108.229C73.1701 109.317 74.9592 108.841 74.5104 107.737H74.5104ZM63.8509 99.4447C64.4736 96.8954 65.2201 94.3763 66.0863 91.8978L68.9198 98.8653C67.2602 99.3009 65.5629 99.4947 63.8509 99.4447V99.4447Z" fill="white"/>
<path d="M78.0738 109.291C79.0999 109.291 79.9317 108.459 79.9317 107.433C79.9317 106.407 79.0999 105.575 78.0738 105.575C77.0477 105.575 76.2158 106.407 76.2158 107.433C76.2158 108.459 77.0477 109.291 78.0738 109.291Z" fill="white"/>
<path d="M58.565 92.8767C59.5911 92.8767 60.423 92.0447 60.423 91.0184C60.423 89.9921 59.5911 89.1602 58.565 89.1602C57.5389 89.1602 56.707 89.9921 56.707 91.0184C56.707 92.0447 57.5389 92.8767 58.565 92.8767Z" fill="white"/>
</g>
<defs>
<clipPath id="clip0_97_296">
<rect width="254" height="200" fill="white"/>
</clipPath>
</defs>
</svg>
