<svg width="243" height="155" viewBox="0 0 243 155" fill="none" xmlns="http://www.w3.org/2000/svg">
<g clip-path="url(#clip0_97_364)">
<path d="M236.768 140.927C235.664 141.314 234.479 141.412 233.326 141.209C232.173 141.006 231.092 140.51 230.187 139.768C227.882 137.835 227.159 134.651 226.571 131.702L224.832 122.98L228.473 125.485C231.092 127.287 233.77 129.146 235.583 131.756C237.396 134.365 238.187 137.928 236.731 140.751" fill="#CFD1D0"/>
<path d="M236.206 152.094C236.664 148.757 237.136 145.378 236.814 142.006C236.528 139.011 235.614 136.087 233.752 133.688C232.764 132.417 231.561 131.328 230.199 130.47C229.843 130.246 229.516 130.809 229.87 131.032C232.228 132.521 234.052 134.719 235.078 137.31C236.212 140.192 236.394 143.333 236.199 146.394C236.081 148.245 235.83 150.084 235.578 151.921C235.558 152.004 235.571 152.091 235.613 152.165C235.655 152.24 235.724 152.295 235.805 152.321C235.889 152.343 235.977 152.332 236.052 152.289C236.127 152.247 236.182 152.176 236.206 152.093L236.206 152.094Z" fill="#CFD1D0"/>
<path d="M232.907 146.741C232.434 147.46 231.783 148.045 231.017 148.44C230.251 148.835 229.397 149.026 228.536 148.996C226.322 148.891 224.478 147.348 222.817 145.882L217.905 141.549L221.156 141.394C223.494 141.282 225.892 141.177 228.119 141.898C230.346 142.619 232.399 144.352 232.806 146.655" fill="#CFD1D0"/>
<path d="M237.502 154.012C235.295 150.111 232.736 145.775 228.163 144.39C226.891 144.006 225.558 143.868 224.235 143.984C223.818 144.02 223.922 144.663 224.338 144.627C226.556 144.443 228.77 145.028 230.607 146.284C232.374 147.486 233.751 149.157 234.915 150.929C235.629 152.015 236.268 153.147 236.907 154.277C237.111 154.638 237.708 154.377 237.502 154.012Z" fill="#CFD1D0"/>
<path d="M149.779 4.10107H0.0639648V75.0827H149.779V4.10107Z" fill="#CFD1D0"/>
<path d="M145.498 10.1877H4.34521V69.4099H145.498V10.1877Z" fill="white"/>
<path d="M149.715 0H0V6.3549H149.715V0Z" fill="#BFDAA2"/>
<path d="M4.72671 4.9148C5.37778 4.9148 5.90558 4.38745 5.90558 3.73694C5.90558 3.08643 5.37778 2.55908 4.72671 2.55908C4.07565 2.55908 3.54785 3.08643 3.54785 3.73694C3.54785 4.38745 4.07565 4.9148 4.72671 4.9148Z" fill="white"/>
<path d="M9.20132 4.9148C9.85239 4.9148 10.3802 4.38745 10.3802 3.73694C10.3802 3.08643 9.85239 2.55908 9.20132 2.55908C8.55025 2.55908 8.02246 3.08643 8.02246 3.73694C8.02246 4.38745 8.55025 4.9148 9.20132 4.9148Z" fill="white"/>
<path d="M13.6759 4.9148C14.327 4.9148 14.8548 4.38745 14.8548 3.73694C14.8548 3.08643 14.327 2.55908 13.6759 2.55908C13.0249 2.55908 12.4971 3.08643 12.4971 3.73694C12.4971 4.38745 13.0249 4.9148 13.6759 4.9148Z" fill="white"/>
<path d="M138.569 57.4156H68.5813C68.5232 57.4156 68.4675 57.3926 68.4265 57.3515C68.3854 57.3105 68.3623 57.2548 68.3623 57.1968V23.6805C68.3623 23.6225 68.3854 23.5668 68.4265 23.5258C68.4675 23.4847 68.5232 23.4617 68.5813 23.4617C68.6394 23.4617 68.6951 23.4847 68.7362 23.5258C68.7773 23.5668 68.8004 23.6225 68.8004 23.6805V56.978H138.569C138.627 56.978 138.682 57.001 138.723 57.0421C138.764 57.0831 138.788 57.1388 138.788 57.1968C138.788 57.2548 138.764 57.3105 138.723 57.3515C138.682 57.3926 138.627 57.4156 138.569 57.4156V57.4156Z" fill="#414648"/>
<path d="M83.5348 55.0084H77.1692C76.9968 55.0082 76.8316 54.9397 76.7097 54.8179C76.5878 54.6961 76.5192 54.531 76.519 54.3588V45.5912C76.5192 45.419 76.5878 45.2539 76.7097 45.1321C76.8316 45.0103 76.9968 44.9418 77.1692 44.9417H83.5348C83.7072 44.9418 83.8724 45.0103 83.9943 45.1321C84.1162 45.2539 84.1848 45.419 84.185 45.5912V54.3588C84.1848 54.531 84.1162 54.6961 83.9943 54.8179C83.8724 54.9397 83.7072 55.0082 83.5348 55.0084V55.0084Z" fill="#BFDAA2"/>
<path d="M95.1432 55.0084H88.7776C88.6053 55.0082 88.44 54.9397 88.3181 54.8179C88.1962 54.6962 88.1276 54.5311 88.1274 54.3588V37.2753C88.1276 37.1031 88.1962 36.938 88.3181 36.8162C88.44 36.6944 88.6053 36.6259 88.7776 36.6257H95.1432C95.3156 36.6259 95.4809 36.6944 95.6028 36.8162C95.7246 36.938 95.7932 37.1031 95.7934 37.2753V54.3588C95.7932 54.5311 95.7247 54.6962 95.6028 54.8179C95.4809 54.9397 95.3156 55.0082 95.1432 55.0084V55.0084Z" fill="#BFDAA2"/>
<path d="M106.752 55.0084H100.386C100.214 55.0082 100.048 54.9397 99.9265 54.8179C99.8046 54.6961 99.736 54.531 99.7358 54.3588V45.5912C99.736 45.419 99.8046 45.2539 99.9265 45.1321C100.048 45.0103 100.214 44.9418 100.386 44.9417H106.752C106.924 44.9418 107.089 45.0103 107.211 45.1321C107.333 45.2539 107.402 45.419 107.402 45.5912V54.3588C107.402 54.531 107.333 54.6961 107.211 54.8179C107.089 54.9397 106.924 55.0082 106.752 55.0084V55.0084Z" fill="#BFDAA2"/>
<path d="M118.36 55.0085H111.994C111.826 55.0121 111.663 54.9488 111.541 54.8326C111.419 54.7164 111.348 54.5566 111.344 54.3883V33.9633C111.348 33.795 111.419 33.6353 111.541 33.519C111.663 33.4028 111.826 33.3395 111.994 33.3432H118.36C118.528 33.3395 118.692 33.4028 118.813 33.519C118.935 33.6353 119.006 33.795 119.01 33.9633V54.3883C119.006 54.5566 118.935 54.7164 118.813 54.8326C118.692 54.9488 118.528 55.0121 118.36 55.0085V55.0085Z" fill="#BFDAA2"/>
<path d="M129.968 55.0083H123.603C123.43 55.0081 123.265 54.9396 123.143 54.8179C123.021 54.6961 122.953 54.531 122.953 54.3588V28.0839C122.953 27.9117 123.021 27.7466 123.143 27.6248C123.265 27.503 123.43 27.4345 123.603 27.4343H129.968C130.141 27.4345 130.306 27.503 130.428 27.6248C130.55 27.7466 130.618 27.9117 130.619 28.0839V54.3588C130.618 54.531 130.55 54.6961 130.428 54.8179C130.306 54.9396 130.141 55.0081 129.968 55.0083V55.0083Z" fill="#BFDAA2"/>
<path d="M80.3518 42.3155C81.0776 42.3155 81.6659 41.7277 81.6659 41.0025C81.6659 40.2773 81.0776 39.6895 80.3518 39.6895C79.626 39.6895 79.0376 40.2773 79.0376 41.0025C79.0376 41.7277 79.626 42.3155 80.3518 42.3155Z" fill="#414648"/>
<path d="M91.9602 33.7809C92.686 33.7809 93.2743 33.193 93.2743 32.4678C93.2743 31.7427 92.686 31.1548 91.9602 31.1548C91.2344 31.1548 90.646 31.7427 90.646 32.4678C90.646 33.193 91.2344 33.7809 91.9602 33.7809Z" fill="#414648"/>
<path d="M103.569 42.3155C104.295 42.3155 104.883 41.7277 104.883 41.0025C104.883 40.2773 104.295 39.6895 103.569 39.6895C102.843 39.6895 102.255 40.2773 102.255 41.0025C102.255 41.7277 102.843 42.3155 103.569 42.3155Z" fill="#414648"/>
<path d="M115.177 29.6229C115.903 29.6229 116.492 29.035 116.492 28.3099C116.492 27.5847 115.903 26.9968 115.177 26.9968C114.452 26.9968 113.863 27.5847 113.863 28.3099C113.863 29.035 114.452 29.6229 115.177 29.6229Z" fill="#414648"/>
<path d="M126.786 24.8082C127.512 24.8082 128.1 24.2204 128.1 23.4952C128.1 22.77 127.512 22.1821 126.786 22.1821C126.06 22.1821 125.472 22.77 125.472 23.4952C125.472 24.2204 126.06 24.8082 126.786 24.8082Z" fill="#414648"/>
<path d="M103.597 41.2967L91.9606 32.5884L80.4833 41.1777L80.2207 40.8273L91.9606 32.0415L103.541 40.7083L115.05 28.1255L115.096 28.1066L126.704 23.4333L126.868 23.8394L115.306 28.4939L103.597 41.2967Z" fill="#414648"/>
<path d="M40.1804 17.4263H20.3008V18.9192H40.1804V17.4263Z" fill="#CFD1D0"/>
<path d="M50.9992 21.8091H20.3008V23.302H50.9992V21.8091Z" fill="#BFDAA2"/>
<path d="M45.6386 25.9832H20.6201V27.4761H45.6386V25.9832Z" fill="#CFD1D0"/>
<path d="M34.9062 30.5627H20.3008V32.0557H34.9062V30.5627Z" fill="#CFD1D0"/>
<path d="M42.3441 35.0364H20.3008V36.5293H42.3441V35.0364Z" fill="#BFDAA2"/>
<path d="M13.6745 16.9568H11.2402V19.3889H13.6745V16.9568Z" fill="#CFD1D0"/>
<path d="M13.6745 21.3394H11.2402V23.7715H13.6745V21.3394Z" fill="#BFDAA2"/>
<path d="M13.6745 25.5134H11.2402V27.9456H13.6745V25.5134Z" fill="#CFD1D0"/>
<path d="M13.6745 30.0933H11.2402V32.5254H13.6745V30.0933Z" fill="#CFD1D0"/>
<path d="M13.6745 34.5667H11.2402V36.9988H13.6745V34.5667Z" fill="#BFDAA2"/>
<path d="M40.1804 39.5378H20.3008V41.0308H40.1804V39.5378Z" fill="#CFD1D0"/>
<path d="M50.9992 43.9204H20.3008V45.4133H50.9992V43.9204Z" fill="#BFDAA2"/>
<path d="M45.6386 48.0945H20.6201V49.5874H45.6386V48.0945Z" fill="#CFD1D0"/>
<path d="M34.9062 52.6743H20.3008V54.1672H34.9062V52.6743Z" fill="#CFD1D0"/>
<path d="M42.3441 57.1477H20.3008V58.6406H42.3441V57.1477Z" fill="#CFD1D0"/>
<path d="M13.6745 39.0681H11.2402V41.5003H13.6745V39.0681Z" fill="#CFD1D0"/>
<path d="M13.6745 43.4509H11.2402V45.8831H13.6745V43.4509Z" fill="#BFDAA2"/>
<path d="M13.6745 47.6248H11.2402V50.0569H13.6745V47.6248Z" fill="#CFD1D0"/>
<path d="M13.6745 52.2046H11.2402V54.6368H13.6745V52.2046Z" fill="#CFD1D0"/>
<path d="M13.6745 56.6782H11.2402V59.1104H13.6745V56.6782Z" fill="#CFD1D0"/>
<path d="M181.704 45.783C182.542 43.1167 184.446 40.6712 187.079 39.7698C189.713 38.8685 194.307 39.711 195.549 42.213C197.339 45.819 196.535 50.235 195.585 54.1502C195.091 54.124 194.591 54.1034 194.09 54.0847L193.382 51.725V54.0614C189.472 53.9407 185.402 54.0163 181.329 54.0945C180.964 51.3226 180.867 48.4494 181.704 45.783Z" fill="#414648"/>
<path d="M217.629 147.384L214.34 148.761L207.458 136.742L212.313 134.709L217.629 147.384Z" fill="#FFC9B8"/>
<path d="M219.804 150.218L209.199 154.659L209.143 154.525C208.684 153.431 208.679 152.2 209.129 151.102C209.579 150.005 210.446 149.131 211.541 148.672L211.541 148.672L218.018 145.96L219.804 150.218Z" fill="#414648"/>
<path d="M169.399 90.607C169.193 90.3107 169.055 89.9731 168.995 89.6179C168.934 89.2626 168.952 88.8984 169.047 88.5509C169.143 88.2033 169.313 87.8809 169.547 87.6064C169.781 87.3318 170.072 87.1118 170.4 86.9617L177.469 65.6494L182.203 68.1722L173.766 88.3283C173.981 88.8954 173.981 89.522 173.766 90.0891C173.55 90.6563 173.133 91.1247 172.595 91.4056C172.057 91.6865 171.434 91.7603 170.845 91.6131C170.256 91.4659 169.741 91.1079 169.399 90.6069V90.607Z" fill="#FFC9B8"/>
<path d="M178.114 151.205L174.548 151.205L172.852 137.462L178.115 137.462L178.114 151.205Z" fill="#FFC9B8"/>
<path d="M179.024 154.659L167.525 154.658V154.513C167.525 153.327 167.997 152.19 168.836 151.351C169.676 150.512 170.814 150.041 172.001 150.041H172.001L179.024 150.042L179.024 154.659Z" fill="#414648"/>
<path d="M192.412 73.0383L193.22 75.1373L193.058 77.2363L177.544 75.299L178.029 73.5228L179.807 71.4238L192.412 73.0383Z" fill="#FFC9B8"/>
<path d="M187.412 54.1491C190.531 54.1491 193.06 51.6226 193.06 48.506C193.06 45.3893 190.531 42.8628 187.412 42.8628C184.292 42.8628 181.764 45.3893 181.764 48.506C181.764 51.6226 184.292 54.1491 187.412 54.1491Z" fill="#FFC9B8"/>
<path d="M193.306 75.2877L177.922 73.6527L177.255 71.4749C177.048 71.1912 175.096 68.4262 175.529 65.6622C175.636 65.0111 175.876 64.3889 176.234 63.8344C176.592 63.2799 177.061 62.8048 177.61 62.4388L181.351 58.063L184.641 56.106L191.128 55.458L191.15 55.463L196.974 56.7797L196.903 67.4457L193.306 75.2877Z" fill="#A0A3A3"/>
<path d="M178.31 76.418L174 75.9066L174.011 75.7714C174.05 75.2959 174.993 64.0969 175.958 61.5248C176.945 58.8973 181.216 58.0787 181.397 58.0453L181.45 58.0356L182.399 58.6047L179.779 66.7839L178.31 76.418Z" fill="#A0A3A3"/>
<path d="M193.22 76.429V80.0155C193.22 80.0155 197.421 85.471 195.159 89.669C195.159 89.669 200.007 98.711 200.33 101.94L204.855 116.795C204.855 116.795 216.167 128.097 215.198 136.171L215.844 138.754L208.41 141.983L206.794 139.723L194.189 118.087L183.524 98.3881L181.584 121.639C181.584 121.639 182.877 139.723 179.322 141.66L178.999 144.567H171.454V141.804C171.454 141.804 168.656 131.972 170.272 124.545L169.626 93.2212C169.626 93.2212 172.535 79.9812 176.09 77.7207L177.383 74.4915L193.22 76.429Z" fill="#414648"/>
<path d="M187.847 83.8443C187.978 83.8736 188.105 83.9131 188.23 83.9624L198.09 77.1811L197.864 74.2844L202.195 73.3728L203.093 78.4621C203.166 78.8733 203.103 79.2969 202.914 79.6693C202.725 80.0417 202.42 80.3428 202.046 80.5275L189.832 86.5458C189.786 87.0578 189.584 87.5436 189.255 87.9385C188.926 88.3334 188.484 88.6188 187.988 88.7566C187.492 88.8945 186.966 88.8783 186.48 88.7103C185.994 88.5422 185.57 88.2302 185.266 87.8158C184.962 87.4014 184.791 86.9042 184.776 86.3903C184.761 85.8765 184.903 85.3703 185.184 84.9392C185.464 84.508 185.869 84.1723 186.345 83.9768C186.82 83.7812 187.345 83.735 187.847 83.8443L187.847 83.8443Z" fill="#FFC9B8"/>
<path d="M197.996 77.5556L195.99 64.1786L194.342 57.2683L196.804 56.7543C196.871 56.7295 198.875 56.0526 200.493 57.1425C201.657 57.927 202.302 59.4157 202.41 61.5673L203.062 76.8741L197.996 77.5556Z" fill="#A0A3A3"/>
<path d="M183.531 41.1575C184.616 40.4965 185.859 40.1389 187.13 40.1222C188.401 40.1055 189.653 40.4302 190.755 41.0624C191.858 41.6946 192.77 42.6111 193.396 43.716C194.023 44.821 194.34 46.0738 194.316 47.3435C191.159 47.4886 187.843 47.5263 184.48 47.5329L183.685 45.5894L183.217 47.5343C182.192 47.5342 181.165 47.5328 180.137 47.5303C180.095 46.2641 180.386 45.0092 180.982 43.8909C181.577 42.7726 182.456 41.8301 183.531 41.1575V41.1575Z" fill="#414648"/>
<path d="M242.718 155H135.483C135.408 155 135.336 154.97 135.284 154.918C135.231 154.865 135.201 154.793 135.201 154.719C135.201 154.644 135.231 154.573 135.284 154.52C135.336 154.467 135.408 154.438 135.483 154.438H242.718C242.793 154.438 242.865 154.467 242.917 154.52C242.97 154.573 243 154.644 243 154.719C243 154.793 242.97 154.865 242.917 154.918C242.865 154.97 242.793 155 242.718 155Z" fill="#CBCBCB"/>
</g>
<defs>
<clipPath id="clip0_97_364">
<rect width="243" height="155" fill="white"/>
</clipPath>
</defs>
</svg>
