<svg width="30" height="30" viewBox="0 0 30 30" fill="none" xmlns="http://www.w3.org/2000/svg">
<path d="M26.25 22.1213C26.25 22.5263 26.1599 22.9425 25.9684 23.3475C25.7768 23.7525 25.5289 24.135 25.2021 24.495C24.6501 25.1025 24.0418 25.5413 23.3544 25.8225C22.6784 26.1038 21.946 26.25 21.1574 26.25C20.0081 26.25 18.78 25.98 17.4844 25.4288C16.1886 24.8775 14.893 24.135 13.6085 23.2013C12.3128 22.2563 11.0847 21.21 9.913 20.0513C8.7525 18.8813 7.70469 17.655 6.76952 16.3725C5.84564 15.09 5.10202 13.8075 4.56121 12.5363C4.0204 11.2538 3.75 10.0275 3.75 8.8575C3.75 8.0925 3.8852 7.36125 4.15561 6.68625C4.42601 6 4.85416 5.37 5.4513 4.8075C6.17239 4.09875 6.96106 3.75 7.79481 3.75C8.11029 3.75 8.42576 3.8175 8.70744 3.9525C9.00038 4.0875 9.25951 4.29 9.46232 4.5825L12.0762 8.26125C12.279 8.5425 12.4255 8.80125 12.5269 9.04875C12.6284 9.285 12.6846 9.52125 12.6846 9.735C12.6846 10.005 12.6057 10.275 12.448 10.5338C12.3016 10.7925 12.0875 11.0625 11.8171 11.3325L10.9608 12.2213C10.8369 12.345 10.7806 12.4913 10.7806 12.6713C10.7806 12.7613 10.7918 12.84 10.8143 12.93C10.8481 13.02 10.8819 13.0875 10.9045 13.155C11.1073 13.5263 11.4566 14.01 11.9523 14.595C12.4593 15.18 13.0001 15.7762 13.586 16.3725C14.1944 16.9687 14.7803 17.52 15.3775 18.0262C15.9634 18.5212 16.4477 18.8587 16.8309 19.0612C16.8872 19.0837 16.9547 19.1175 17.0336 19.1513C17.1237 19.185 17.214 19.1963 17.3154 19.1963C17.5069 19.1963 17.6534 19.1288 17.7772 19.005L18.6336 18.1613C18.9153 17.88 19.1856 17.6662 19.4448 17.5312C19.7039 17.3737 19.9631 17.295 20.2448 17.295C20.4589 17.295 20.6841 17.34 20.932 17.4413C21.1799 17.5425 21.439 17.6887 21.7208 17.88L25.45 20.5238C25.743 20.7263 25.9458 20.9625 26.0698 21.2438C26.1824 21.525 26.25 21.8063 26.25 22.1213Z" stroke="white" stroke-width="1.5" stroke-miterlimit="10"/>
</svg>
