<svg width="34" height="34" viewBox="0 0 34 34" fill="none" xmlns="http://www.w3.org/2000/svg">
<g clip-path="url(#clip0_61_4085)">
<path d="M16.7599 26.5493C11.3177 26.5493 8.83201 23.777 8.83201 21.7432C8.83064 21.2586 9.02993 20.7945 9.3821 20.4601C9.73426 20.127 10.2079 19.9523 10.6925 19.9796C13.0225 19.9796 12.4124 23.474 16.7599 23.474C18.9821 23.474 20.287 22.1363 20.287 20.8791C20.287 20.1243 19.8557 19.2616 18.3883 18.9163L13.5344 17.6919C9.63462 16.6995 8.95485 14.5319 8.95485 12.5199C8.95485 8.34579 12.7727 6.83474 16.4091 6.83474C19.7588 6.83474 23.7391 8.68431 23.7391 11.1877C23.7391 12.266 22.8382 12.8434 21.7926 12.8434C19.8024 12.8434 20.1369 10.0493 16.1347 10.0493C14.1445 10.0493 13.0976 10.983 13.0976 12.2879C13.0976 13.5928 14.6455 14.0351 16.005 14.3326L19.5868 15.1421C23.5138 16.0266 24.5594 18.3293 24.5594 20.5352C24.5594 23.9272 21.9332 26.5493 16.7558 26.5493M31.7857 19.3708C31.9413 18.4808 32.0191 17.5786 32.0177 16.6736C32.0368 12.1323 30.0412 7.81754 26.5701 4.891C23.0989 1.96446 18.5084 0.726411 14.0353 1.51265C12.6608 0.720951 11.102 0.305994 9.51587 0.310089C6.26036 0.330563 3.25875 2.07502 1.63168 4.89509C0.00324681 7.71516 -0.00630808 11.1863 1.60438 14.016C0.706217 18.9545 2.28005 24.02 5.81947 27.5785C9.35889 31.137 14.4162 32.7395 19.3588 31.8673C20.732 32.6576 22.2894 33.0726 23.8728 33.0699C27.127 33.0494 30.1259 31.3049 31.7529 28.4862C33.38 25.6675 33.3936 22.1991 31.7857 19.3708Z" fill="black" fill-opacity="0.3"/>
</g>
<defs>
<clipPath id="clip0_61_4085">
<rect width="32.7598" height="32.7598" fill="white" transform="translate(0.3125 0.310059)"/>
</clipPath>
</defs>
</svg>
