<svg width="34" height="33" viewBox="0 0 34 33" fill="none" xmlns="http://www.w3.org/2000/svg">
<g clip-path="url(#clip0_61_4080)">
<path fill-rule="evenodd" clip-rule="evenodd" d="M17.0044 0C7.95861 0 0.624512 7.33409 0.624512 16.3799C0.624512 25.4257 7.95861 32.7598 17.0044 32.7598C26.0502 32.7598 33.3843 25.4257 33.3843 16.3799C33.3843 7.33409 26.0502 0 17.0044 0ZM24.5965 11.1397C24.3508 13.7291 23.2834 20.0149 22.7415 22.9155C22.5121 24.144 22.059 24.5548 21.6222 24.5944C20.6708 24.6818 19.9487 23.9651 19.0273 23.3618C17.5859 22.4172 16.771 21.8289 15.3719 20.9062C13.7544 19.8401 14.8027 19.2546 15.724 18.2977C15.9656 18.0465 20.1562 14.2341 20.2381 13.8888C20.2476 13.8451 20.2585 13.684 20.1616 13.5994C20.0647 13.5148 19.9241 13.5434 19.8231 13.5666C19.6784 13.5994 17.3757 15.1214 12.9135 18.1325C12.2597 18.5816 11.6673 18.8 11.1363 18.7891C10.5521 18.7768 9.42734 18.4588 8.5906 18.1858C7.56549 17.8527 6.74922 17.6753 6.8202 17.1102C6.85706 16.8153 7.26246 16.5137 8.03778 16.2052C12.8125 14.1249 15.997 12.7531 17.59 12.0897C22.1395 10.1978 23.0841 9.86888 23.701 9.85796C24.4736 9.84704 24.6593 10.4845 24.5965 11.1397Z" fill="black" fill-opacity="0.3"/>
</g>
<defs>
<clipPath id="clip0_61_4080">
<rect width="32.7598" height="32.7598" fill="white" transform="translate(0.624512)"/>
</clipPath>
</defs>
</svg>
