<svg width="33" height="33" viewBox="0 0 33 33" fill="none" xmlns="http://www.w3.org/2000/svg">
<g clip-path="url(#clip0_61_4089)">
<path d="M30.3213 7.57569C25.4454 -6.28477e-06 15.4905 -2.25224 7.77037 2.45698C0.253398 7.16619 -2.18454 17.4036 2.69134 24.9793L3.09766 25.5936L1.47237 31.736L7.56721 30.098L8.17669 30.5075C10.8178 31.9408 13.6621 32.7598 16.5063 32.7598C19.5537 32.7598 22.6012 31.9408 25.2423 30.3028C32.7592 25.3888 34.994 15.3561 30.3213 7.57569V7.57569ZM26.0549 23.3413C25.2423 24.5698 24.2264 25.3888 22.8043 25.5936C21.9917 25.5936 20.9759 26.0031 16.9126 24.3651C13.4589 22.7271 10.6146 20.0654 8.58302 16.9941C7.36405 15.5609 6.75456 13.7181 6.5514 11.8754C6.5514 10.2374 7.16089 8.80418 8.17669 7.78044C8.58302 7.37094 8.98934 7.16619 9.39566 7.16619H10.4115C10.8178 7.16619 11.2241 7.16619 11.4273 7.98519C11.8336 9.00893 12.8494 11.4659 12.8494 11.6707C13.0526 11.8754 13.0526 12.2849 12.8494 12.4897C13.0526 12.8992 12.8494 13.3087 12.6462 13.5134C12.4431 13.7182 12.2399 14.1276 12.0368 14.3324C11.6304 14.5371 11.4273 14.9466 11.6304 15.3561C12.4431 16.5846 13.4589 17.8131 14.4747 18.8369C15.6937 19.8606 16.9126 20.6796 18.3348 21.2938C18.7411 21.4986 19.1474 21.4986 19.3506 21.0891C19.5537 20.6796 20.5695 19.6559 20.9759 19.2464C21.3822 18.8369 21.5853 18.8369 21.9917 19.0416L25.2423 20.6796C25.6486 20.8844 26.0549 21.0891 26.2581 21.2938C26.4612 21.9081 26.4612 22.7271 26.0549 23.3413V23.3413Z" fill="black" fill-opacity="0.3"/>
</g>
<defs>
<clipPath id="clip0_61_4089">
<rect width="32.7598" height="32.7598" fill="white"/>
</clipPath>
</defs>
</svg>
