<svg width="45" height="46" viewBox="0 0 45 46" fill="none" xmlns="http://www.w3.org/2000/svg">
<path d="M31 45L13 45" stroke="black" stroke-width="2" stroke-linecap="round"/>
<path d="M21 45L21 30" stroke="black" stroke-width="2" stroke-linecap="round"/>
<path d="M43.6 30H22.5H1.4C1.17909 30 1 29.8209 1 29.6V15.5V1.4C1 1.17909 1.17909 1 1.4 1H22.5H43.6C43.8209 1 44 1.17909 44 1.4V15.5V29.6C44 29.8209 43.8209 30 43.6 30Z" stroke="black" stroke-width="2"/>
<path d="M10.5222 17.5188C10.5222 17.5188 15.4825 20.1475 21.2841 18.1167C29.7851 15.1409 32.7044 10.161 32.7044 10.161M32.7044 10.161L24.2736 9.34765M32.7044 10.161L33.4411 19.1131" stroke="#81BD52" stroke-width="2" stroke-linecap="round"/>
</svg>
