<svg width="224" height="41" viewBox="0 0 224 41" fill="none" xmlns="http://www.w3.org/2000/svg">
<path d="M8.046 30.189C6.804 30.189 5.688 29.973 4.698 29.541C3.726 29.091 2.961 28.479 2.403 27.705C1.845 26.913 1.557 26.004 1.539 24.978H4.158C4.248 25.86 4.608 26.607 5.238 27.219C5.886 27.813 6.822 28.11 8.046 28.11C9.216 28.11 10.134 27.822 10.8 27.246C11.484 26.652 11.826 25.896 11.826 24.978C11.826 24.258 11.628 23.673 11.232 23.223C10.836 22.773 10.341 22.431 9.747 22.197C9.153 21.963 8.352 21.711 7.344 21.441C6.102 21.117 5.103 20.793 4.347 20.469C3.609 20.145 2.97 19.641 2.43 18.957C1.908 18.255 1.647 17.319 1.647 16.149C1.647 15.123 1.908 14.214 2.43 13.422C2.952 12.63 3.681 12.018 4.617 11.586C5.571 11.154 6.66 10.938 7.884 10.938C9.648 10.938 11.088 11.379 12.204 12.261C13.338 13.143 13.977 14.313 14.121 15.771H11.421C11.331 15.051 10.953 14.421 10.287 13.881C9.621 13.323 8.739 13.044 7.641 13.044C6.615 13.044 5.778 13.314 5.13 13.854C4.482 14.376 4.158 15.114 4.158 16.068C4.158 16.752 4.347 17.31 4.725 17.742C5.121 18.174 5.598 18.507 6.156 18.741C6.732 18.957 7.533 19.209 8.559 19.497C9.801 19.839 10.8 20.181 11.556 20.523C12.312 20.847 12.96 21.36 13.5 22.062C14.04 22.746 14.31 23.682 14.31 24.87C14.31 25.788 14.067 26.652 13.581 27.462C13.095 28.272 12.375 28.929 11.421 29.433C10.467 29.937 9.342 30.189 8.046 30.189ZM17.0077 22.575C17.0077 21.045 17.3137 19.713 17.9257 18.579C18.5377 17.427 19.3837 16.536 20.4637 15.906C21.5617 15.276 22.8127 14.961 24.2167 14.961C26.0347 14.961 27.5287 15.402 28.6987 16.284C29.8867 17.166 30.6697 18.39 31.0477 19.956H28.4017C28.1497 19.056 27.6547 18.345 26.9167 17.823C26.1967 17.301 25.2967 17.04 24.2167 17.04C22.8127 17.04 21.6787 17.526 20.8147 18.498C19.9507 19.452 19.5187 20.811 19.5187 22.575C19.5187 24.357 19.9507 25.734 20.8147 26.706C21.6787 27.678 22.8127 28.164 24.2167 28.164C25.2967 28.164 26.1967 27.912 26.9167 27.408C27.6367 26.904 28.1317 26.184 28.4017 25.248H31.0477C30.6517 26.76 29.8597 27.975 28.6717 28.893C27.4837 29.793 25.9987 30.243 24.2167 30.243C22.8127 30.243 21.5617 29.928 20.4637 29.298C19.3837 28.668 18.5377 27.777 17.9257 26.625C17.3137 25.473 17.0077 24.123 17.0077 22.575ZM36.7831 17.607C37.2151 16.761 37.8271 16.104 38.6191 15.636C39.4291 15.168 40.4101 14.934 41.5621 14.934V17.472H40.9141C38.1601 17.472 36.7831 18.966 36.7831 21.954V30H34.3261V15.204H36.7831V17.607ZM50.8513 30.243C49.4653 30.243 48.2053 29.928 47.0713 29.298C45.9553 28.668 45.0733 27.777 44.4253 26.625C43.7953 25.455 43.4803 24.105 43.4803 22.575C43.4803 21.063 43.8043 19.731 44.4523 18.579C45.1183 17.409 46.0183 16.518 47.1523 15.906C48.2863 15.276 49.5553 14.961 50.9593 14.961C52.3633 14.961 53.6323 15.276 54.7663 15.906C55.9003 16.518 56.7913 17.4 57.4393 18.552C58.1053 19.704 58.4383 21.045 58.4383 22.575C58.4383 24.105 58.0963 25.455 57.4123 26.625C56.7463 27.777 55.8373 28.668 54.6853 29.298C53.5333 29.928 52.2553 30.243 50.8513 30.243ZM50.8513 28.083C51.7333 28.083 52.5613 27.876 53.3353 27.462C54.1093 27.048 54.7303 26.427 55.1983 25.599C55.6843 24.771 55.9273 23.763 55.9273 22.575C55.9273 21.387 55.6933 20.379 55.2253 19.551C54.7573 18.723 54.1453 18.111 53.3893 17.715C52.6333 17.301 51.8143 17.094 50.9323 17.094C50.0323 17.094 49.2043 17.301 48.4483 17.715C47.7103 18.111 47.1163 18.723 46.6663 19.551C46.2163 20.379 45.9913 21.387 45.9913 22.575C45.9913 23.781 46.2073 24.798 46.6393 25.626C47.0893 26.454 47.6833 27.075 48.4213 27.489C49.1593 27.885 49.9693 28.083 50.8513 28.083ZM68.1218 30.243C66.7358 30.243 65.4758 29.928 64.3418 29.298C63.2258 28.668 62.3438 27.777 61.6958 26.625C61.0658 25.455 60.7508 24.105 60.7508 22.575C60.7508 21.063 61.0748 19.731 61.7228 18.579C62.3888 17.409 63.2888 16.518 64.4228 15.906C65.5568 15.276 66.8258 14.961 68.2298 14.961C69.6338 14.961 70.9028 15.276 72.0368 15.906C73.1708 16.518 74.0618 17.4 74.7098 18.552C75.3758 19.704 75.7088 21.045 75.7088 22.575C75.7088 24.105 75.3668 25.455 74.6828 26.625C74.0168 27.777 73.1078 28.668 71.9558 29.298C70.8038 29.928 69.5258 30.243 68.1218 30.243ZM68.1218 28.083C69.0038 28.083 69.8318 27.876 70.6058 27.462C71.3798 27.048 72.0008 26.427 72.4688 25.599C72.9548 24.771 73.1978 23.763 73.1978 22.575C73.1978 21.387 72.9638 20.379 72.4958 19.551C72.0278 18.723 71.4158 18.111 70.6598 17.715C69.9038 17.301 69.0848 17.094 68.2028 17.094C67.3028 17.094 66.4748 17.301 65.7188 17.715C64.9808 18.111 64.3868 18.723 63.9368 19.551C63.4868 20.379 63.2618 21.387 63.2618 22.575C63.2618 23.781 63.4778 24.798 63.9098 25.626C64.3598 26.454 64.9538 27.075 65.6918 27.489C66.4298 27.885 67.2398 28.083 68.1218 28.083ZM85.0414 14.961C86.3194 14.961 87.4354 15.24 88.3894 15.798C89.3614 16.356 90.0814 17.058 90.5494 17.904V15.204H93.0334V30.324C93.0334 31.674 92.7454 32.871 92.1694 33.915C91.5934 34.977 90.7654 35.805 89.6854 36.399C88.6234 36.993 87.3814 37.29 85.9594 37.29C84.0154 37.29 82.3954 36.831 81.0994 35.913C79.8034 34.995 79.0384 33.744 78.8044 32.16H81.2344C81.5044 33.06 82.0624 33.78 82.9084 34.32C83.7544 34.878 84.7714 35.157 85.9594 35.157C87.3094 35.157 88.4074 34.734 89.2534 33.888C90.1174 33.042 90.5494 31.854 90.5494 30.324V27.219C90.0634 28.083 89.3434 28.803 88.3894 29.379C87.4354 29.955 86.3194 30.243 85.0414 30.243C83.7274 30.243 82.5304 29.919 81.4504 29.271C80.3884 28.623 79.5514 27.714 78.9394 26.544C78.3274 25.374 78.0214 24.042 78.0214 22.548C78.0214 21.036 78.3274 19.713 78.9394 18.579C79.5514 17.427 80.3884 16.536 81.4504 15.906C82.5304 15.276 83.7274 14.961 85.0414 14.961ZM90.5494 22.575C90.5494 21.459 90.3244 20.487 89.8744 19.659C89.4244 18.831 88.8124 18.201 88.0384 17.769C87.2824 17.319 86.4454 17.094 85.5274 17.094C84.6094 17.094 83.7724 17.31 83.0164 17.742C82.2604 18.174 81.6574 18.804 81.2074 19.632C80.7574 20.46 80.5324 21.432 80.5324 22.548C80.5324 23.682 80.7574 24.672 81.2074 25.518C81.6574 26.346 82.2604 26.985 83.0164 27.435C83.7724 27.867 84.6094 28.083 85.5274 28.083C86.4454 28.083 87.2824 27.867 88.0384 27.435C88.8124 26.985 89.4244 26.346 89.8744 25.518C90.3244 24.672 90.5494 23.691 90.5494 22.575ZM110.685 22.035C110.685 22.503 110.658 22.998 110.604 23.52H98.7784C98.8684 24.978 99.3634 26.121 100.263 26.949C101.181 27.759 102.288 28.164 103.584 28.164C104.646 28.164 105.528 27.921 106.23 27.435C106.95 26.931 107.454 26.265 107.742 25.437H110.388C109.992 26.859 109.2 28.02 108.012 28.92C106.824 29.802 105.348 30.243 103.584 30.243C102.18 30.243 100.92 29.928 99.8044 29.298C98.7064 28.668 97.8424 27.777 97.2124 26.625C96.5824 25.455 96.2674 24.105 96.2674 22.575C96.2674 21.045 96.5734 19.704 97.1854 18.552C97.7974 17.4 98.6524 16.518 99.7504 15.906C100.866 15.276 102.144 14.961 103.584 14.961C104.988 14.961 106.23 15.267 107.31 15.879C108.39 16.491 109.218 17.337 109.794 18.417C110.388 19.479 110.685 20.685 110.685 22.035ZM108.147 21.522C108.147 20.586 107.94 19.785 107.526 19.119C107.112 18.435 106.545 17.922 105.825 17.58C105.123 17.22 104.34 17.04 103.476 17.04C102.234 17.04 101.172 17.436 100.29 18.228C99.4264 19.02 98.9314 20.118 98.8054 21.522H108.147Z" fill="white"/>
<path d="M176.717 11.181V13.179H168.536V19.524H175.178V21.522H168.536V30H166.079V11.181H176.717ZM182.141 17.607C182.573 16.761 183.185 16.104 183.977 15.636C184.787 15.168 185.768 14.934 186.92 14.934V17.472H186.272C183.518 17.472 182.141 18.966 182.141 21.954V30H179.684V15.204H182.141V17.607ZM196.21 30.243C194.824 30.243 193.564 29.928 192.43 29.298C191.314 28.668 190.432 27.777 189.784 26.625C189.154 25.455 188.839 24.105 188.839 22.575C188.839 21.063 189.163 19.731 189.811 18.579C190.477 17.409 191.377 16.518 192.511 15.906C193.645 15.276 194.914 14.961 196.318 14.961C197.722 14.961 198.991 15.276 200.125 15.906C201.259 16.518 202.15 17.4 202.798 18.552C203.464 19.704 203.797 21.045 203.797 22.575C203.797 24.105 203.455 25.455 202.771 26.625C202.105 27.777 201.196 28.668 200.044 29.298C198.892 29.928 197.614 30.243 196.21 30.243ZM196.21 28.083C197.092 28.083 197.92 27.876 198.694 27.462C199.468 27.048 200.089 26.427 200.557 25.599C201.043 24.771 201.286 23.763 201.286 22.575C201.286 21.387 201.052 20.379 200.584 19.551C200.116 18.723 199.504 18.111 198.748 17.715C197.992 17.301 197.173 17.094 196.291 17.094C195.391 17.094 194.563 17.301 193.807 17.715C193.069 18.111 192.475 18.723 192.025 19.551C191.575 20.379 191.35 21.387 191.35 22.575C191.35 23.781 191.566 24.798 191.998 25.626C192.448 26.454 193.042 27.075 193.78 27.489C194.518 27.885 195.328 28.083 196.21 28.083ZM213.129 14.961C214.407 14.961 215.523 15.24 216.477 15.798C217.449 16.356 218.169 17.058 218.637 17.904V15.204H221.121V30.324C221.121 31.674 220.833 32.871 220.257 33.915C219.681 34.977 218.853 35.805 217.773 36.399C216.711 36.993 215.469 37.29 214.047 37.29C212.103 37.29 210.483 36.831 209.187 35.913C207.891 34.995 207.126 33.744 206.892 32.16H209.322C209.592 33.06 210.15 33.78 210.996 34.32C211.842 34.878 212.859 35.157 214.047 35.157C215.397 35.157 216.495 34.734 217.341 33.888C218.205 33.042 218.637 31.854 218.637 30.324V27.219C218.151 28.083 217.431 28.803 216.477 29.379C215.523 29.955 214.407 30.243 213.129 30.243C211.815 30.243 210.618 29.919 209.538 29.271C208.476 28.623 207.639 27.714 207.027 26.544C206.415 25.374 206.109 24.042 206.109 22.548C206.109 21.036 206.415 19.713 207.027 18.579C207.639 17.427 208.476 16.536 209.538 15.906C210.618 15.276 211.815 14.961 213.129 14.961ZM218.637 22.575C218.637 21.459 218.412 20.487 217.962 19.659C217.512 18.831 216.9 18.201 216.126 17.769C215.37 17.319 214.533 17.094 213.615 17.094C212.697 17.094 211.86 17.31 211.104 17.742C210.348 18.174 209.745 18.804 209.295 19.632C208.845 20.46 208.62 21.432 208.62 22.548C208.62 23.682 208.845 24.672 209.295 25.518C209.745 26.346 210.348 26.985 211.104 27.435C211.86 27.867 212.697 28.083 213.615 28.083C214.533 28.083 215.37 27.867 216.126 27.435C216.9 26.985 217.512 26.346 217.962 25.518C218.412 24.672 218.637 23.691 218.637 22.575Z" fill="white"/>
<path d="M115.968 21.7817L136.354 38.6838L121.899 33.3463L115.968 21.7817Z" fill="#3F7F1C"/>
<path d="M117.229 20.5215L126.495 23.635L131.758 32.8271L117.229 20.5215Z" fill="#81BD52"/>
<path d="M112.632 9.40137C112.84 10.401 113.359 11.3092 114.115 11.9959C115.301 12.9596 118.1 12.8855 118.1 12.8855L115.079 10.4392L112.632 9.40137Z" fill="#3F7F1C"/>
<path d="M116.858 8.95654L119.378 12.7373L120.787 13.1081L120.991 11.2731L116.858 8.95654Z" fill="#3F7F1C"/>
<path d="M122.122 12.144L121.973 15.5545L127.162 22.4487L126.94 19.1128L122.122 12.144Z" fill="#3F7F1C"/>
<path d="M130.869 13.6273L137.244 35.5705V2.72998L130.869 13.6273Z" fill="#3F7F1C"/>
<path d="M134.501 2.80418L131.332 2.21094L130.053 6.36192L130.276 7.47389L134.501 2.80418Z" fill="#3F7F1C"/>
<path d="M130.609 2.04395L128.941 2.98942L129.553 5.37987L130.609 2.04395Z" fill="#3F7F1C"/>
<path d="M120.713 6.21387L119.675 8.06696V9.69766L121.38 8.21542L120.713 6.21387Z" fill="#81BD52"/>
<path d="M127.708 18.9622L127.978 22.5967L131.091 17.7786L130.311 14.6196L127.708 18.9622Z" fill="#3F7F1C"/>
<path d="M158.594 21.7817L138.208 38.6838L152.664 33.3463L158.594 21.7817Z" fill="#81BD52"/>
<path d="M157.334 20.5215L148.067 23.635L142.804 32.8271L157.334 20.5215Z" fill="#3F7F1C"/>
<path d="M161.93 9.40137C161.722 10.401 161.203 11.3092 160.447 11.9959C159.261 12.9596 156.462 12.8855 156.462 12.8855L159.483 10.4392L161.93 9.40137Z" fill="#81BD52"/>
<path d="M157.704 8.95654L155.184 12.7373L153.776 13.1081L153.571 11.2731L157.704 8.95654Z" fill="#3F7F1C"/>
<path d="M152.441 12.144L152.589 15.5545L147.4 22.4487L147.622 19.1128L152.441 12.144Z" fill="#3F7F1C"/>
<path d="M143.693 13.6273L137.318 35.5705V2.72998L143.693 13.6273Z" fill="#81BD52"/>
<path d="M140.061 2.80418L143.23 2.21094L144.509 6.36192L144.287 7.47389L140.061 2.80418Z" fill="#81BD52"/>
<path d="M143.953 2.04395L145.621 2.98942L145.009 5.37987L143.953 2.04395Z" fill="#81BD52"/>
<path d="M153.849 6.21387L154.887 8.06696V9.69766L153.182 8.21542L153.849 6.21387Z" fill="#3F7F1C"/>
<path d="M146.854 18.9622L146.584 22.5967L143.471 17.7786L144.251 14.6196L146.854 18.9622Z" fill="#81BD52"/>
</svg>
